<svg width="277" height="120" viewBox="0 0 277 120" fill="none" xmlns="http://www.w3.org/2000/svg">
<path fill-rule="evenodd" clip-rule="evenodd" d="M264.083 41.0941C253.39 37.2383 245.436 39.6866 239.532 45.0582L239.524 45.0258L239.375 44.6955C234.215 40.5095 229.938 40.5095 229.938 40.5095C218.75 39.9871 202.988 45.1137 202.988 45.1137C202.988 45.1137 197.126 35.1013 190.567 35.8863C184.007 36.6712 185.23 47.3983 185.23 47.3983C170.165 34.5495 131.912 43.81 131.571 43.8924L131.569 43.893C131.838 43.7955 132.101 43.6778 132.353 43.5397C140.488 39.0925 142.85 34.3177 142.85 34.3177C144.556 34.8401 155.315 33.3365 156.037 24.1794C156.759 15.0236 149.082 10.6413 144.294 10.2488C139.504 9.85634 135.633 12.4075 135.633 12.4075C133.338 1.22301 122.381 2.92288 122.381 2.92288C107.227 5.93284 113.13 19.1434 113.13 19.1434C106.308 25.3582 106.702 31.1778 106.702 31.1778C67.0986 -5.27466 22.2686 0.306761 22.2686 0.306761C9.87015 0.632931 0.0945519 7.3715 0.75095 14.826C1.40735 22.2833 9.73887 22.2833 9.73887 22.2833C18.1408 22.2833 18.6821 16.5272 18.6821 16.5272C36.6147 15.6557 47.4608 19.6671 47.4608 19.6671C44.1369 26.2068 43.0866 42.254 43.0866 42.254C43.0866 42.254 15.9699 47.1371 17.0202 60.2177C18.0704 73.2983 42.7374 85.6832 42.7374 85.6832C42.8254 88.1247 45.5525 96.0597 52.4467 96.0597C59.3409 96.0597 60.8906 91.875 60.8906 91.875C65.5111 93.426 74.5301 92.9198 74.5301 92.9198V98.3064C75.265 111.105 88.3971 111.487 88.3971 111.487H225.641C226.691 113.321 231.404 120 236.937 120C242.471 120 243.813 113.031 243.901 110.85C243.988 108.669 250.222 88.1058 250.222 88.1058L250.219 88.0611C250.319 88.0336 250.418 88.0024 250.517 87.9711C250.599 87.9455 250.681 87.9198 250.763 87.896C264.949 83.7262 276.813 73.9168 276.813 60.2583C276.813 46.5998 264.083 41.0941 264.083 41.0941ZM160.598 87.0732C159.606 87.08 158.852 87.7594 158.783 88.7312C158.731 89.4958 158.689 90.2619 158.652 91.0279C158.613 91.8085 158.57 92.5919 158.528 93.3724L158.527 93.3762L158.526 93.3948C158.383 96.0064 158.24 98.6183 158.242 101.237C158.242 101.31 158.234 101.385 158.22 101.509C158.212 101.585 158.201 101.679 158.189 101.802C158.102 101.716 158.029 101.648 157.97 101.593L157.969 101.592C157.875 101.505 157.811 101.445 157.759 101.377C157.659 101.245 157.564 101.108 157.469 100.972L157.469 100.972C157.35 100.803 157.232 100.633 157.105 100.471C155.964 98.9926 154.823 97.5161 153.672 96.0463L153.134 95.3572L153.133 95.3569L153.133 95.3567L153.133 95.3564C152.279 94.2625 151.425 93.1676 150.544 92.093C150.134 91.5909 149.664 91.1213 149.163 90.7004C148.024 89.7449 146.118 90.6165 146.089 91.8589C146.086 91.9661 146.065 92.0734 146.044 92.1806C146.023 92.2859 146.003 92.3911 145.999 92.4963C145.985 92.8688 145.967 93.2432 145.95 93.6157L145.95 93.6206V93.621V93.6214V93.6217V93.6221V93.6225V93.6228V93.6232V93.6236V93.6239C145.903 94.6273 145.856 95.6308 145.863 96.635C145.88 99.1003 145.923 101.564 145.966 104.028V104.029V104.03V104.031V104.032V104.033V104.034V104.034V104.035V104.036L146.01 106.574C146.017 106.91 146.032 107.251 146.094 107.583C146.204 108.173 146.579 108.569 147.163 108.778C147.836 109.019 148.426 108.839 148.931 108.401C149.421 107.972 149.685 107.437 149.663 106.771C149.624 105.435 149.596 104.097 149.568 102.761L149.568 102.76L149.568 102.759L149.568 102.758L149.568 102.757L149.568 102.755L149.568 102.754L149.568 102.752L149.568 102.751L149.568 102.749L149.536 101.247C149.506 99.9904 149.476 98.7336 149.456 97.4768C149.456 97.4526 149.454 97.4273 149.452 97.4016C149.444 97.2796 149.434 97.1464 149.609 97.0492C149.84 97.1401 149.976 97.3329 150.11 97.5232C150.149 97.5792 150.188 97.635 150.23 97.688C150.928 98.5726 151.626 99.4623 152.321 100.349L152.322 100.35L152.322 100.351L152.323 100.352L152.324 100.353L152.325 100.354L152.326 100.355L152.326 100.356L152.327 100.357C153.203 101.474 154.079 102.592 154.961 103.705C155.542 104.436 156.15 105.147 156.779 105.838C157.09 106.181 157.448 106.507 157.843 106.752C158.889 107.396 160.167 107.139 160.895 106.178C161.318 105.626 161.627 105.019 161.691 104.328C161.77 103.474 161.845 102.618 161.876 101.76C161.913 100.662 161.944 99.5636 161.975 98.4653C162.019 96.8961 162.063 95.3269 162.126 93.7577C162.165 92.8488 162.24 91.942 162.314 91.0351L162.315 91.0331C162.353 90.5647 162.392 90.0961 162.425 89.6271L162.437 89.4786L162.437 89.4783C162.458 89.2211 162.479 88.9622 162.457 88.7082C162.378 87.773 161.563 87.0706 160.598 87.0732ZM177.067 89.1832C177.383 88.5417 177.912 88.1803 178.497 88.1492C178.848 88.1303 179.218 88.2318 179.577 88.4619C180.109 88.8056 180.405 89.2969 180.476 89.9371C180.532 90.4724 180.592 91.0121 180.653 91.5466L180.653 91.5486L180.653 91.5506L180.653 91.5527L180.654 91.5576L180.654 91.5614L180.655 91.564L180.655 91.5656L180.655 91.5672L180.655 91.5676C180.711 92.0594 180.766 92.5511 180.818 93.0431L180.935 94.1659C181.066 95.4248 181.196 96.6832 181.322 97.9424C181.428 99.0177 181.527 100.093 181.627 101.168L181.766 102.659L181.808 103.085L181.808 103.086C181.839 103.384 181.87 103.682 181.89 103.981C181.912 104.297 181.912 104.613 181.912 104.927C181.91 106.25 180.362 107.813 178.616 107.067C178.218 106.895 177.822 106.688 177.474 106.431C176.846 105.967 176.238 105.471 175.654 104.952C173.615 103.137 171.754 101.138 169.902 99.1348C169.562 98.7653 169.215 98.3972 168.866 98.0385C168.818 97.9887 168.758 97.952 168.673 97.9005C168.622 97.8696 168.563 97.8332 168.491 97.7854C168.491 97.9263 168.489 98.0551 168.487 98.1751C168.483 98.4078 168.479 98.6086 168.494 98.8059C168.528 99.2263 168.569 99.6511 168.609 100.071V100.071V100.071V100.072V100.072V100.072V100.072V100.072V100.073V100.073C168.654 100.531 168.698 100.989 168.734 101.448C168.847 102.897 168.949 104.345 169.05 105.796C169.069 106.048 169.083 106.301 169.069 106.553C169.014 107.52 168.176 108.337 167.23 108.35C166.457 108.361 165.85 107.913 165.636 107.152C165.569 106.91 165.53 106.654 165.515 106.404L165.473 105.729C165.272 102.549 165.071 99.3697 164.887 96.1884C164.849 95.5079 164.871 94.8218 164.892 94.1382L164.899 93.9133C164.909 93.5696 164.954 93.219 165.032 92.8821C165.299 91.7317 166.552 91.147 167.594 91.6965C167.947 91.8846 168.28 92.1363 168.578 92.4084C169.134 92.9159 169.672 93.4437 170.187 93.9905C170.928 94.7701 171.664 95.5553 172.4 96.3405L172.4 96.3406L172.4 96.3407L172.4 96.3407L172.4 96.3408L172.4 96.3409L172.4 96.341L172.4 96.3411L172.4 96.3412L172.4 96.3413L172.404 96.3449C173.061 97.0467 173.719 97.7484 174.38 98.4459C175.198 99.3089 176.028 100.158 176.858 101.007L176.859 101.008L177.458 101.621C177.523 101.69 177.598 101.748 177.71 101.835C177.777 101.887 177.858 101.95 177.957 102.031C177.957 101.875 177.96 101.739 177.962 101.618V101.617C177.966 101.387 177.97 101.206 177.953 101.027C177.688 98.4188 177.417 95.8122 177.145 93.2042C177.071 92.4915 176.994 91.7722 176.917 91.0598L176.916 91.0532L176.854 90.4716C176.807 90.0223 176.865 89.5947 177.067 89.1832ZM204.52 88.5904C204.764 88.3576 205.067 88.2588 205.395 88.2683C205.504 88.271 205.615 88.2873 205.73 88.313C206.753 88.5525 207.335 89.2725 207.358 90.4026C207.396 92.2045 207.43 94.0068 207.464 95.8093L207.465 95.8376L207.465 95.8692L207.465 95.874L207.466 95.8789L207.466 95.8838L207.466 95.8886L207.466 95.8934C207.496 97.484 207.526 99.0747 207.559 100.665C207.575 101.511 207.613 102.355 207.65 103.2C207.654 103.306 207.675 103.419 207.694 103.519L207.716 103.638C208.027 103.765 208.296 103.702 208.555 103.642L208.663 103.617C210.831 103.142 213.025 102.908 215.239 102.901C216.56 102.899 217.881 102.905 219.201 102.939C219.726 102.951 220.25 103.008 220.774 103.064L221.126 103.102C221.596 103.15 222.012 103.353 222.377 103.654C223.282 104.402 223.227 105.984 222.156 106.512C221.639 106.765 221.147 106.88 220.57 106.836C217.319 106.588 214.067 106.547 210.832 107.066C210.279 107.155 209.728 107.264 209.177 107.372L209.176 107.372C208.853 107.435 208.531 107.499 208.208 107.558C207.596 107.671 206.989 107.691 206.378 107.549C205.002 107.229 204.126 106.275 203.923 104.842C203.88 104.531 203.864 104.217 203.857 103.904C203.767 99.6711 203.68 95.4355 203.592 91.2023L203.586 90.9088C203.586 90.8841 203.586 90.8593 203.586 90.8345L203.586 90.7826C203.587 90.6984 203.588 90.6142 203.578 90.5312C203.484 89.6772 203.978 89.1074 204.52 88.5904ZM197.162 89.6955L197.162 89.6955C196.901 89.7236 196.64 89.7517 196.378 89.7611C194.094 89.8464 191.806 89.9195 189.52 89.9885C189.26 89.9968 188.998 89.9936 188.736 89.9904H188.735H188.735C188.402 89.9864 188.068 89.9823 187.737 90.002C187.239 90.0318 186.738 90.0954 186.251 90.205C185.615 90.3444 185.133 90.7058 184.774 91.258C184.369 91.8832 184.252 92.5464 184.314 93.2718L184.355 93.7439V93.7442C184.594 96.4858 184.832 99.2273 185.282 101.946C185.403 102.675 185.573 103.398 185.743 104.121L185.743 104.121L185.885 104.728C186.109 105.7 186.756 106.232 187.745 106.439C188.68 106.635 189.614 106.589 190.552 106.53C191.426 106.476 192.303 106.421 193.177 106.373C193.578 106.351 193.981 106.334 194.383 106.317C195.172 106.283 195.961 106.25 196.746 106.183C197.453 106.124 198.155 105.988 198.854 105.853L198.967 105.831C199.561 105.715 200.082 105.427 200.555 105.059C201.184 104.569 201.375 103.78 201.076 102.981C200.809 102.271 200.223 101.863 199.408 101.881C199.043 101.889 198.674 101.95 198.307 102.009L198.199 102.027C197.644 102.115 197.091 102.209 196.538 102.303C195.485 102.481 194.433 102.659 193.375 102.798C192.5 102.914 191.614 102.963 190.729 103.011L190.729 103.011L190.423 103.028C190.284 103.035 190.145 103.043 190.006 103.051C189.844 103.061 189.679 103.035 189.512 103.009L189.511 103.009C189.431 102.997 189.351 102.984 189.27 102.976C189.249 102.89 189.227 102.805 189.205 102.72L189.168 102.58C188.962 101.79 188.761 101.021 188.826 100.12L189.554 100.077L189.555 100.077C190.207 100.038 190.824 100.002 191.441 99.9712C193.256 99.8764 195.061 99.7005 196.859 99.4081C197.438 99.3134 197.926 99.0874 198.357 98.703C198.795 98.3132 198.923 97.8274 198.81 97.2833C198.606 96.3346 197.619 95.7878 196.963 95.8907L196.741 95.9256C196.445 95.9726 196.148 96.0198 195.849 96.0436C193.632 96.2195 191.415 96.3887 189.197 96.5552C189.041 96.5674 188.882 96.566 188.727 96.5552C188.518 96.5443 188.374 96.4307 188.331 96.2304L188.276 95.9852L188.276 95.9851C188.206 95.6787 188.136 95.3722 188.104 95.0624C188.096 94.9882 188.087 94.9138 188.078 94.8389C188.036 94.4929 187.993 94.137 188.095 93.7509C188.165 93.7426 188.232 93.733 188.299 93.7235C188.449 93.7022 188.594 93.6816 188.74 93.6778C189.522 93.6545 190.305 93.634 191.087 93.6136C192.341 93.581 193.594 93.5483 194.847 93.5033C195.49 93.4806 196.131 93.4338 196.771 93.3871L196.771 93.387L196.772 93.387L196.772 93.387L196.773 93.387L196.773 93.3869L196.773 93.3869L196.774 93.3869C197.163 93.3585 197.553 93.33 197.943 93.307C198.603 93.2705 199.154 93.0133 199.61 92.5599C200.038 92.1363 200.195 91.6329 200.023 91.0455C199.772 90.1847 199.032 89.6217 198.065 89.6271C197.763 89.6308 197.463 89.6631 197.162 89.6955ZM133.341 87.5997C133.089 87.5997 132.829 87.6417 132.565 87.7283C132.059 87.8934 131.682 88.2209 131.445 88.6703C131.066 89.3903 130.692 90.1143 130.399 90.8696C129.549 93.0509 128.937 95.3091 128.325 97.564L128.122 98.3119C128.069 98.5046 128.015 98.6964 127.96 98.892L127.839 99.3188L127.454 99.471C127.166 99.5842 126.884 99.6947 126.608 99.8169L126.568 99.8343C126.295 99.9531 126.017 100.074 125.777 100.245C125.317 100.571 125.041 101.042 125.105 101.61C125.2 102.453 125.474 103.207 126.418 103.471C126.495 103.491 126.568 103.531 126.653 103.578L126.653 103.578C126.678 103.592 126.705 103.607 126.733 103.621C126.75 103.63 126.767 103.639 126.785 103.648C126.777 103.711 126.77 103.773 126.764 103.833C126.751 103.96 126.739 104.083 126.709 104.201C126.571 104.745 126.428 105.291 126.272 105.831C126.108 106.394 126.15 106.945 126.336 107.492C126.508 107.998 126.858 108.308 127.359 108.51C128.105 108.81 129.21 108.305 129.574 107.401C129.669 107.166 129.728 106.915 129.787 106.664L129.804 106.591L129.966 105.916C130.217 104.863 130.469 103.81 130.704 102.754C130.801 102.314 131.012 102.041 131.446 101.888C132.498 101.516 133.548 101.138 134.597 100.76C135.399 100.471 136.202 100.182 137.006 99.8954C137.116 99.8563 137.237 99.8502 137.361 99.8438H137.362C137.423 99.8407 137.485 99.8375 137.547 99.8304L137.693 100.079C137.815 100.285 137.928 100.477 138.03 100.676C138.982 102.509 139.931 104.343 140.878 106.175C140.919 106.253 140.957 106.331 140.995 106.41L140.995 106.41C141.067 106.557 141.138 106.703 141.223 106.842C141.911 107.963 143.374 108.002 144.098 106.906C144.573 106.185 144.719 105.431 144.272 104.609C143.926 103.969 143.602 103.317 143.278 102.665L143.278 102.664L143.278 102.663C143.087 102.28 142.896 101.896 142.701 101.514C142.318 100.764 141.931 100.016 141.527 99.2327L140.925 98.0683L140.973 97.9167C141.017 97.7774 141.065 97.6262 141.103 97.4728C141.285 96.7135 140.992 96.0287 140.318 95.6389L140.265 95.6072C140.173 95.5516 140.079 95.4944 139.979 95.4819C139.553 95.4251 139.347 95.1368 139.156 94.7944L139.058 94.6151C138.622 93.8259 138.186 93.0354 137.71 92.273C137.045 91.2133 136.359 90.1671 135.634 89.1494C135.33 88.7244 134.933 88.3482 134.521 88.022C134.16 87.7378 133.762 87.6038 133.341 87.5997ZM135.597 96.4442C135.341 95.6078 134.12 93.5344 133.593 93.0363C133.214 93.575 132.92 94.4601 132.238 97.1764C132.214 97.2679 132.214 97.3653 132.214 97.4702L132.214 97.5013L132.214 97.5337C132.214 97.5607 132.213 97.5882 132.212 97.6162C133.819 97.2183 135.027 96.7974 135.597 96.4442ZM119.362 87.6309C119.485 87.6146 119.607 87.6065 119.723 87.6065C120.546 87.6119 121.202 88.0734 121.434 88.8692C121.537 89.2292 121.562 89.6163 121.583 89.9912C121.632 90.8744 121.672 91.7576 121.713 92.6404L121.771 93.8714C121.776 93.9759 121.795 94.0798 121.815 94.1878C121.824 94.2378 121.833 94.2887 121.841 94.341C121.961 94.3591 122.078 94.374 122.192 94.3885C122.402 94.4154 122.603 94.441 122.799 94.4831C124.246 94.7931 124.486 96.5552 123.786 97.3415C123.434 97.7367 123.027 97.9993 122.53 98.1535C122.324 98.2185 122.12 98.2956 121.918 98.3728C121.901 98.379 121.888 98.3967 121.867 98.4264L121.867 98.4264C121.856 98.4422 121.843 98.4613 121.825 98.4838L121.818 98.5592C121.811 98.6333 121.802 98.7237 121.814 98.8113C122.035 100.427 122.091 102.056 122.147 103.684V103.685L122.171 104.387C122.183 104.707 122.204 105.027 122.224 105.346L122.224 105.346C122.241 105.594 122.257 105.842 122.269 106.091C122.32 107.147 121.782 107.937 120.796 108.253C119.946 108.526 119.121 108.151 118.762 107.336C118.593 106.953 118.539 106.553 118.521 106.139C118.433 104.213 118.337 102.288 118.234 100.364C118.223 100.15 118.197 99.9363 118.168 99.7076L118.131 99.3973C118.037 99.4154 117.95 99.4301 117.868 99.4438C117.705 99.4711 117.564 99.4949 117.426 99.5354C116.454 99.818 115.483 100.106 114.512 100.393L114.512 100.393L114.511 100.394L114.51 100.394L114.51 100.394L114.505 100.395L113.423 100.716C113.362 100.734 113.302 100.755 113.243 100.776L113.242 100.776C113.182 100.797 113.122 100.818 113.062 100.836C112.784 100.916 112.635 101.094 112.643 101.388L112.655 101.708C112.666 101.979 112.676 102.252 112.683 102.524L112.701 103.325L112.701 103.325C112.718 104.037 112.735 104.748 112.735 105.458C112.738 106.438 112.179 107.039 111.313 107.38C110.556 107.677 109.763 107.39 109.34 106.695C109.103 106.31 108.969 105.896 108.974 105.439C108.98 104.681 108.976 103.922 108.965 103.164L108.965 103.136C108.964 103.119 108.965 103.103 108.965 103.086C108.965 103.049 108.966 103.012 108.967 102.976L108.967 102.974L108.967 102.973V102.973C108.974 102.721 108.981 102.459 108.819 102.174L108.588 102.221C108.437 102.252 108.28 102.285 108.123 102.31C106.847 102.52 105.676 101.247 106.001 99.9969C106.154 99.4014 106.544 98.9967 107.116 98.7951C107.501 98.6585 107.892 98.5407 108.299 98.4183L108.299 98.4182L108.3 98.4181C108.489 98.361 108.682 98.303 108.88 98.2415C108.888 98.1818 108.898 98.12 108.91 98.0568C108.934 97.9178 108.959 97.7718 108.959 97.6257C108.965 95.9827 108.966 94.3397 108.953 92.698C108.951 92.4721 108.931 92.2467 108.911 92.0216C108.889 91.7747 108.867 91.528 108.87 91.281C108.89 89.7936 110.508 88.8706 111.81 89.5892C112.245 89.8301 112.565 90.1753 112.669 90.6665C112.746 91.0347 112.795 91.4136 112.8 91.7912C112.807 92.6001 112.808 93.4099 112.809 94.2196V94.2196V94.2197V94.2198V94.2198V94.2228C112.809 94.8019 112.81 95.3811 112.813 95.9597C112.813 96.0216 112.811 96.0841 112.808 96.1472C112.798 96.3985 112.788 96.6585 112.968 96.9247C113.796 96.7628 114.605 96.5175 115.422 96.2701L115.422 96.27C116.237 96.0231 117.058 95.7741 117.912 95.6037C117.916 95.5722 117.92 95.5409 117.925 95.5098C117.93 95.4708 117.936 95.4321 117.942 95.3938L117.942 95.3936V95.3935V95.3935V95.3934C117.966 95.2417 117.989 95.0952 117.983 94.9501C117.921 93.5888 117.851 92.2276 117.781 90.8657L117.734 89.9343C117.73 89.871 117.724 89.808 117.719 89.7452L117.719 89.7447C117.71 89.6507 117.701 89.5568 117.701 89.462C117.688 88.4307 118.269 87.7906 119.362 87.6309ZM95.6894 89.4512C96.5014 89.2901 97.3175 89.148 98.1498 89.1561C98.2676 89.1575 98.3867 89.1602 98.5071 89.167C99.3124 89.213 100.054 89.4458 100.727 89.8937C101.407 90.3498 101.884 90.9683 102.115 91.7506C102.313 92.4246 102.243 93.0661 101.705 93.5872C101.148 94.1299 100.48 94.3383 99.713 94.1935C99.2867 94.1136 98.9321 93.8836 98.7535 93.4924C98.472 92.8712 97.9861 92.8415 97.4122 92.9064C96.2375 93.039 95.1331 93.3963 94.068 93.889C92.919 94.4222 91.8173 95.0394 90.7995 95.7878C89.5273 96.7189 88.2822 97.6893 87.0479 98.6692C86.4294 99.1605 85.8637 99.7194 85.4441 100.396C84.7282 101.549 85.0016 101.732 85.8921 102.281C86.6554 102.751 87.5081 102.991 88.4148 102.985C88.6909 102.984 88.9672 102.984 89.2435 102.984C90.0725 102.984 90.902 102.984 91.7293 102.946C94.9139 102.797 98.0984 102.617 101.261 102.204C101.796 102.135 102.324 102.021 102.852 101.907L102.852 101.907L102.852 101.907L102.852 101.907L102.852 101.907C103.095 101.854 103.338 101.802 103.582 101.754C103.642 101.742 103.702 101.728 103.762 101.715C103.885 101.687 104.009 101.659 104.135 101.648C104.897 101.58 105.722 101.985 105.987 102.932C106.222 103.778 106.017 104.508 105.248 104.962C104.848 105.198 104.389 105.362 103.937 105.477C103.298 105.641 102.64 105.753 101.985 105.842C100.953 105.984 99.9201 106.121 98.882 106.202C97.3325 106.324 95.7816 106.429 94.2304 106.533C93.5136 106.582 92.7967 106.63 92.0798 106.68V106.63C91.7305 106.64 91.3814 106.652 91.0325 106.664C90.3717 106.687 89.7112 106.709 89.0496 106.721C87.7801 106.745 86.5282 106.639 85.3196 106.204C84.1029 105.769 83.0513 105.099 82.2325 104.095C81.097 102.706 80.8142 101.178 81.5166 99.5015C81.813 98.7991 82.219 98.159 82.717 97.5865C83.1109 97.1358 83.5169 96.6919 83.9649 96.2953C85.9977 94.4885 88.1536 92.8455 90.5167 91.4921C92.1394 90.561 93.8406 89.8166 95.6894 89.4512ZM32.6771 4.89973C32.0559 4.89973 31.436 4.90921 30.8175 4.92545C20.2393 5.23267 11.7346 6.53464 9.82629 8.57421C9.47035 8.96954 9.09277 9.34802 8.71872 9.72296L8.71868 9.723L8.71863 9.72305L8.7186 9.72308C7.34472 11.1002 6.01832 12.4298 5.98534 14.3722C5.92444 16.7677 8.74763 16.9896 10.4461 16.9693C12.1189 16.9693 13.6862 16.8218 13.6632 15.8C13.6632 15.1223 13.1045 14.8505 12.5401 14.5759C11.9637 14.2955 11.3813 14.0122 11.3813 13.2908C11.3813 11.6803 20.1311 11.3162 24.4917 11.3162C61.9105 11.1849 104.999 37.1431 105.068 59.171C105.123 76.2617 82.8814 80.1095 70.621 80.1095C66.2508 80.1325 62.0337 79.6818 58.0249 78.8968C57.8192 73.4548 57.5079 62.0416 57.3698 54.805C57.8308 54.7979 58.2824 54.7894 58.7208 54.7811L58.7211 54.7811H58.7213C59.6265 54.7641 60.4748 54.7481 61.2297 54.7481C70.3273 54.7319 82.2589 57.9516 82.2683 60.067C82.2683 60.9882 81.4537 61.7691 80.649 62.5404C79.8637 63.2932 79.0878 64.0369 79.0878 64.8932C79.1088 65.8967 80.8608 65.9662 82.8126 66.0437C83.3825 66.0663 83.9694 66.0896 84.5353 66.137C84.9995 66.1898 90.1302 63.303 90.1234 58.7569C90.0937 52.7532 82.631 45.6668 58.2577 45.7656H57.1912C56.9679 39.0108 55.9948 28.4096 52.1322 28.4164C48.9761 28.434 48.0544 40.1355 47.7851 46.537C34.1076 48.6429 21.9609 54.1973 21.9812 59.688C21.9812 64.1772 31.773 75.4646 47.5739 82.3358C47.8568 87.4286 48.8123 90.9123 53.3327 90.8879C56.6092 90.8879 57.7028 88.4816 58.0465 85.9507C63.161 87.2581 68.7113 88.0336 74.5918 88.012C97.5279 87.9524 115.961 75.6676 115.892 58.8421C115.841 36.6112 71.8011 4.84289 32.6771 4.89973ZM47.5969 55.0865C47.5306 61.262 47.4467 70.0984 47.4657 76.0411C33.8924 71.2488 24.6541 63.6332 24.6541 61.0929C24.6541 57.1748 36.5627 55.6468 47.5969 55.0865ZM115.772 13.2583C115.772 9.44851 119.213 6.3614 123.458 6.3614C128.032 6.54141 131.15 9.20219 131.142 13.2583C131.012 14.7119 130.472 16.2399 129.685 17.531C131.777 17.7097 133.66 18.4973 135.316 19.9116C135.534 20.097 135.755 20.2635 135.986 20.4043C136.445 16.9964 138.836 14.4033 142.776 14.0988C146.533 14.1272 150.737 16.4307 151.454 20.9592C151.971 25.2616 149.948 28.859 144.649 29.6751C143.142 29.8564 141.683 29.5884 140.402 28.9808C139.843 30.0919 139.103 31.0921 138.246 32.0124C135.189 35.2957 131.533 37.6574 127.209 38.9702C125.925 39.36 124.611 39.5725 122.667 39.5278C121.801 39.4953 120.35 39.3708 118.933 39.0081L118.866 38.9926L118.791 38.9756L118.771 38.9723C118.766 38.9712 118.76 38.97 118.755 38.9694L118.749 38.9689L118.746 38.9688C116.392 38.5263 114.353 37.1986 112.988 35.3458L112.955 35.2957C111.916 33.8503 111.391 32.2357 111.406 30.4451C111.415 29.4179 111.674 28.4624 112.092 27.5394C113.211 25.0573 114.981 23.0975 117.125 21.4586C117.335 21.2989 117.547 21.1459 117.76 20.9971C118.569 20.4273 119.403 19.9279 120.262 19.5002C118.044 18.2605 115.772 15.7256 115.772 13.2583ZM136.979 26.6272C136.979 25.918 136.565 24.0571 134.239 24.0571C131.995 24.0666 128.296 26.6042 125.11 29.3245C124.572 29.782 124.044 30.2516 123.523 30.7307L123.466 30.7835C123.408 30.8375 123.35 30.8914 123.291 30.9445C123.122 31.1029 122.954 31.2612 122.786 31.4209C122.643 31.5563 122.502 31.6916 122.365 31.8256C121.974 32.2059 121.587 32.5889 121.206 32.9787L121.106 33.0781C120.993 33.1885 120.879 33.3004 120.79 33.4348C120.659 33.5756 120.533 33.7136 120.414 33.8462C121.532 34.1981 122.838 34.4092 124.396 34.4092C128.185 34.3944 136.979 30.8918 136.979 26.6272ZM124.9 23.0217C122.684 24.3413 120.425 26.0006 118.497 27.7722C117.92 28.3149 117.352 28.882 116.791 29.4707C116.55 29.7332 116.316 29.9958 116.094 30.2584C116.038 30.0702 115.994 29.8794 115.964 29.6926C115.912 29.4883 115.907 29.2893 115.931 29.0985C116.068 27.0468 119.067 23.9732 124.9 23.0217ZM191.576 40.3263C190.427 40.3263 190.209 41.5403 190.209 42.8193C190.209 44.6394 191.379 48.5221 192.632 52.6763L192.632 52.6765C194.073 57.4552 195.622 62.5934 195.622 65.3642C195.622 66.4171 195.537 68.3241 194.691 68.592C194.211 68.7298 192.357 65.9946 189.978 62.4842C185.952 56.5453 180.422 48.3874 177.499 48.1679C172.7 47.7998 170.115 68.2253 170.139 73.2559C170.139 78.2418 171.046 81.6334 174.798 81.6131C178.184 81.6131 178.425 73.9761 178.613 68.0482C178.732 64.2883 178.829 61.216 179.693 61.216C180.296 61.216 181.88 63.6881 183.894 66.8316C187.412 72.3234 192.243 79.8644 195.453 79.8523C200.913 79.8334 204.15 71.8483 204.141 66.6594C204.101 54.7955 196.173 40.2898 191.576 40.3263ZM246.732 44.6734C246.97 44.4826 247.203 44.4027 247.424 44.4163C248.611 44.4907 249.414 47.2584 248.394 49.4103C248.092 50.0581 247.447 51.21 246.657 52.6174C244.429 56.5915 241.058 62.6035 241.068 65.0556C241.068 65.7364 241.282 66.5064 241.67 67.3036C247.77 59.5243 258.221 47.9744 263.664 47.682C265.596 47.5507 271.775 50.0478 271.817 60.5095C271.84 70.9348 259.248 83.0707 247.911 83.114C247.345 83.114 246.825 83.0693 246.304 83.0139C245.196 87.7223 241.968 98.7593 239.976 104.802C239.31 106.708 238.903 109.03 238.554 111.019C238.138 113.399 237.804 115.3 237.211 115.441C234.342 116.026 229.576 111.396 229.482 106.683C229.344 98.6119 233.304 85.8962 235.645 78.3826L235.653 78.3565C235.956 77.3828 236.232 76.4969 236.468 75.7204C235.179 73.1327 234.578 70.3203 234.578 67.9965C234.56 57.9002 243.841 47.05 246.732 44.6734ZM266.608 59.4146C266.608 56.854 265.953 55.1 264.237 55.1C261.79 55.0594 255.142 65.5604 250.572 73.494C257.272 73.601 266.608 67.1737 266.608 59.4146ZM227.132 44.9685C227.47 44.9333 227.806 44.917 228.135 44.9238C233.082 45.0104 236.91 49.5443 236.586 50.7177C236.238 51.9574 235.183 52.7261 233.737 53.1064C233.435 53.1835 231.872 53.2676 229.877 53.3748C226.054 53.5804 220.647 53.8711 219.492 54.361C218.658 54.7292 218.118 58.2954 218.518 58.9816C218.848 59.5148 223.244 59.6601 225.93 59.7489C226.815 59.7781 227.515 59.8013 227.821 59.8301C230.25 60.0277 230.992 65.3628 227.062 65.5875C226.658 65.6131 225.614 65.6213 224.314 65.6317H224.313C221.279 65.6557 216.849 65.6909 215.899 65.9827C214.552 66.3995 213.193 72.6779 213.912 73.3438C214.339 73.7255 218.407 73.0082 222.006 72.3734L222.006 72.3734L222.007 72.3734C224.405 71.9504 226.595 71.5641 227.362 71.5641C229.281 71.5641 232.018 73.7187 231.809 75.5512C231.655 76.7896 222.709 83.8042 212.703 84.1115C206.395 84.3483 204.095 77.4203 204.095 74.2993C204.093 72.9238 205.004 70.2007 205.786 67.8675C206.144 66.7988 206.474 65.8117 206.677 65.0732C206.778 64.6272 206.5 64.1233 206.238 63.6506C206.025 63.2656 205.824 62.9012 205.849 62.606C206.019 60.8277 207.735 60.0609 209.039 59.4784C209.776 59.1494 210.381 58.8792 210.502 58.5187C210.836 57.5821 211.714 54.5952 211.565 53.8319C211.517 53.5633 210.846 53.2543 209.975 52.8536C208.253 52.0609 205.751 50.9092 205.751 49.0016C205.751 46.6688 212.727 46.1378 220.165 45.5718L220.166 45.5717C222.51 45.3933 224.9 45.2114 227.132 44.9685ZM130.549 57.2127C130.531 45.974 150.343 45.5274 154.25 45.4949L154.353 45.4948C159.583 45.4892 168.715 45.4795 168.715 49.0787C168.715 52.3679 160.104 52.9329 152.148 53.4549C145.33 53.9022 138.993 54.318 138.97 56.3898C138.951 57.5418 143.681 57.9251 148.814 58.341L148.814 58.341C149.67 58.4102 150.536 58.4804 151.393 58.5552C159.399 59.2563 168.588 60.3918 168.61 70.2093C168.63 74.2452 165.188 82.0692 151.583 82.1328C137.786 82.195 132.872 74.9896 132.872 71.9363C132.842 66.0585 138.382 64.4574 142.247 64.4303C145.927 64.4303 157.789 65.8609 157.789 68.8519C157.789 70.4814 154.804 72.0743 151.247 72.1041C149.288 72.1085 146.858 71.144 144.646 70.2654C142.793 69.5297 141.092 68.8543 139.946 68.8587C137.409 68.8587 136.291 70.5626 136.291 71.579C136.291 72.594 136.425 74.57 143.178 74.5307C146.429 74.5307 162.315 72.7578 162.315 68.2902C162.273 66.3075 155.004 64.299 149.026 63.6954C147.426 63.5319 145.65 63.4914 143.85 63.4502C137.365 63.3022 130.563 63.1468 130.549 57.2127ZM119.31 67.1628L119.323 66.3983C119.437 60.0908 119.698 45.5107 123.418 45.4692C126.47 45.4692 127.875 49.4983 128.362 70.4692C128.629 81.5129 127.569 81.8946 124.462 81.8946C120.984 81.8946 119.048 80.3517 119.31 67.1628Z" fill="#003A7B"/>
<path d="M158.783 88.7312C158.852 87.7594 159.606 87.08 160.598 87.0732C161.563 87.0706 162.378 87.773 162.457 88.7082C162.479 88.9624 162.458 89.2213 162.437 89.4786L162.425 89.6271C162.392 90.0968 162.353 90.566 162.314 91.0351C162.24 91.942 162.165 92.8488 162.126 93.7577C162.063 95.3269 162.019 96.8961 161.975 98.4653C161.944 99.5636 161.913 100.662 161.876 101.76C161.845 102.618 161.77 103.474 161.691 104.328C161.627 105.019 161.318 105.626 160.895 106.178C160.167 107.139 158.889 107.396 157.843 106.752C157.448 106.507 157.09 106.181 156.779 105.838C156.15 105.147 155.542 104.436 154.961 103.705C154.077 102.589 153.199 101.469 152.321 100.349C151.626 99.4623 150.928 98.5726 150.23 97.688C150.188 97.635 150.149 97.5792 150.11 97.5232C149.976 97.3329 149.84 97.1401 149.609 97.0492C149.434 97.1464 149.444 97.2796 149.452 97.4016C149.454 97.4273 149.456 97.4526 149.456 97.4768C149.476 98.7336 149.506 99.9904 149.536 101.247L149.568 102.749C149.595 104.089 149.624 105.431 149.663 106.771C149.685 107.437 149.421 107.972 148.931 108.401C148.426 108.839 147.836 109.019 147.163 108.778C146.579 108.569 146.204 108.173 146.094 107.583C146.032 107.251 146.017 106.91 146.01 106.574L145.966 104.036C145.923 101.57 145.88 99.1031 145.863 96.635C145.856 95.6297 145.903 94.6251 145.95 93.6206C145.967 93.2465 145.985 92.8704 145.999 92.4963C146.003 92.3911 146.023 92.2859 146.044 92.1806C146.065 92.0734 146.086 91.9661 146.089 91.8589C146.118 90.6165 148.024 89.7449 149.163 90.7004C149.664 91.1213 150.134 91.5909 150.544 92.093C151.425 93.1679 152.28 94.2631 153.134 95.3572L153.672 96.0463C154.823 97.5161 155.964 98.9926 157.105 100.471C157.232 100.633 157.35 100.803 157.469 100.972C157.564 101.108 157.659 101.245 157.759 101.377C157.811 101.445 157.875 101.505 157.969 101.592C158.029 101.648 158.101 101.715 158.189 101.802C158.201 101.679 158.212 101.585 158.22 101.509C158.234 101.385 158.242 101.31 158.242 101.237C158.24 98.6183 158.383 96.0064 158.526 93.3948C158.57 92.6069 158.613 91.8159 158.652 91.0279C158.689 90.2619 158.731 89.4958 158.783 88.7312Z" fill="white"/>
<path d="M178.497 88.1492C177.912 88.1803 177.383 88.5417 177.067 89.1832C176.865 89.5946 176.807 90.0223 176.854 90.4716L176.916 91.0532C176.993 91.7678 177.071 92.4893 177.145 93.2042C177.417 95.8122 177.688 98.4188 177.953 101.027C177.97 101.206 177.966 101.387 177.962 101.618C177.96 101.739 177.957 101.875 177.957 102.031C177.858 101.95 177.777 101.887 177.71 101.835C177.598 101.748 177.523 101.69 177.458 101.621L176.859 101.008C176.028 100.158 175.198 99.309 174.38 98.4459C173.718 97.7472 173.059 97.0443 172.4 96.3413C171.665 95.5559 170.928 94.7704 170.187 93.9905C169.672 93.4437 169.134 92.9159 168.578 92.4084C168.28 92.1363 167.947 91.8846 167.594 91.6965C166.552 91.147 165.299 91.7317 165.032 92.8821C164.954 93.219 164.909 93.5696 164.899 93.9133L164.892 94.1382C164.871 94.8218 164.849 95.5079 164.887 96.1884C165.071 99.3697 165.272 102.549 165.473 105.729L165.515 106.404C165.53 106.654 165.569 106.91 165.636 107.152C165.85 107.913 166.457 108.361 167.23 108.35C168.176 108.337 169.014 107.52 169.069 106.553C169.083 106.301 169.069 106.048 169.05 105.796C168.949 104.345 168.847 102.897 168.734 101.448C168.698 100.988 168.654 100.529 168.609 100.071C168.569 99.6511 168.528 99.2263 168.494 98.8059C168.479 98.6086 168.483 98.4078 168.487 98.1751C168.489 98.0551 168.491 97.9263 168.491 97.7854C168.563 97.8332 168.622 97.8696 168.673 97.9005C168.758 97.9519 168.818 97.9887 168.866 98.0385C169.215 98.3972 169.562 98.7653 169.902 99.1348C171.754 101.138 173.615 103.137 175.654 104.952C176.238 105.471 176.846 105.967 177.474 106.431C177.822 106.688 178.218 106.895 178.616 107.067C180.362 107.813 181.91 106.25 181.912 104.927C181.912 104.613 181.912 104.297 181.89 103.981C181.87 103.681 181.839 103.383 181.808 103.085L181.766 102.659L181.627 101.168C181.527 100.093 181.428 99.0177 181.322 97.9424C181.196 96.6832 181.066 95.4248 180.935 94.1659L180.818 93.0431C180.766 92.5511 180.711 92.0594 180.655 91.5676C180.594 91.0262 180.532 90.4794 180.476 89.9371C180.405 89.2969 180.109 88.8056 179.577 88.4619C179.218 88.2318 178.848 88.1303 178.497 88.1492Z" fill="white"/>
<path d="M204.52 88.5904C204.764 88.3576 205.067 88.2588 205.395 88.2683C205.504 88.271 205.615 88.2873 205.73 88.313C206.753 88.5525 207.335 89.2725 207.358 90.4026C207.396 92.2045 207.43 94.0068 207.464 95.8093L207.465 95.8376C207.495 97.4468 207.525 99.0561 207.559 100.665C207.575 101.511 207.613 102.355 207.65 103.199C207.654 103.306 207.675 103.419 207.694 103.519L207.716 103.638C208.027 103.765 208.296 103.702 208.555 103.642L208.663 103.617C210.831 103.142 213.025 102.908 215.239 102.901C216.56 102.899 217.881 102.905 219.201 102.939C219.726 102.951 220.25 103.008 220.774 103.064L221.126 103.102C221.596 103.15 222.012 103.353 222.377 103.654C223.282 104.402 223.227 105.984 222.156 106.512C221.639 106.765 221.147 106.88 220.57 106.836C217.319 106.588 214.067 106.547 210.832 107.066C210.279 107.155 209.728 107.264 209.177 107.372C208.854 107.435 208.531 107.499 208.208 107.558C207.596 107.671 206.989 107.691 206.378 107.549C205.002 107.229 204.126 106.275 203.923 104.842C203.88 104.531 203.864 104.217 203.857 103.904C203.767 99.6711 203.68 95.4355 203.592 91.2023L203.586 90.9088C203.585 90.8668 203.586 90.8247 203.586 90.7826C203.587 90.6984 203.588 90.6142 203.578 90.5312C203.484 89.6772 203.978 89.1074 204.52 88.5904Z" fill="white"/>
<path d="M197.162 89.6955C197.463 89.6631 197.763 89.6308 198.065 89.6271C199.032 89.6217 199.772 90.1847 200.023 91.0455C200.195 91.6329 200.038 92.1363 199.61 92.5599C199.154 93.0133 198.603 93.2705 197.943 93.307C197.553 93.33 197.163 93.3585 196.774 93.3869C196.132 93.4337 195.491 93.4805 194.847 93.5033C193.594 93.5483 192.341 93.581 191.087 93.6137C190.305 93.634 189.522 93.6545 188.74 93.6779C188.594 93.6816 188.449 93.7022 188.299 93.7235C188.232 93.733 188.165 93.7426 188.095 93.7509C187.993 94.137 188.036 94.4929 188.078 94.8389C188.087 94.9138 188.096 94.9882 188.103 95.0624C188.136 95.3722 188.206 95.6787 188.276 95.9852L188.331 96.2304C188.374 96.4307 188.518 96.5443 188.727 96.5552C188.882 96.566 189.041 96.5674 189.197 96.5552C191.415 96.3887 193.632 96.2195 195.849 96.0436C196.148 96.0198 196.445 95.9726 196.741 95.9256L196.963 95.8907C197.619 95.7878 198.606 96.3346 198.81 97.2833C198.923 97.8274 198.795 98.3132 198.357 98.703C197.926 99.0874 197.438 99.3134 196.859 99.4081C195.061 99.7005 193.256 99.8764 191.441 99.9712C190.824 100.002 190.207 100.038 189.554 100.077L188.826 100.12C188.761 101.021 188.962 101.79 189.168 102.58C189.202 102.711 189.237 102.843 189.27 102.976C189.351 102.984 189.432 102.997 189.512 103.009C189.679 103.035 189.844 103.061 190.006 103.051C190.247 103.037 190.488 103.024 190.729 103.011C191.614 102.963 192.499 102.914 193.375 102.798C194.433 102.659 195.485 102.481 196.538 102.303C197.091 102.209 197.644 102.115 198.198 102.027L198.307 102.009C198.674 101.95 199.043 101.889 199.408 101.881C200.223 101.863 200.809 102.271 201.076 102.981C201.375 103.78 201.184 104.569 200.555 105.059C200.082 105.427 199.561 105.715 198.967 105.831L198.854 105.853C198.155 105.988 197.453 106.124 196.746 106.183C195.961 106.25 195.172 106.283 194.383 106.317C193.981 106.334 193.578 106.351 193.177 106.373C192.303 106.421 191.426 106.476 190.552 106.53C189.614 106.589 188.68 106.635 187.745 106.439C186.756 106.232 186.109 105.7 185.885 104.728L185.743 104.121C185.573 103.399 185.403 102.675 185.282 101.946C184.832 99.2272 184.594 96.4856 184.355 93.7439L184.314 93.2718C184.252 92.5464 184.369 91.8832 184.774 91.258C185.133 90.7058 185.615 90.3444 186.251 90.205C186.738 90.0954 187.239 90.0318 187.737 90.002C188.068 89.9823 188.402 89.9864 188.735 89.9904C188.998 89.9936 189.26 89.9968 189.521 89.9885C191.806 89.9195 194.094 89.8464 196.378 89.7611C196.64 89.7517 196.901 89.7236 197.162 89.6955Z" fill="white"/>
<path fill-rule="evenodd" clip-rule="evenodd" d="M133.341 87.5997C133.089 87.5997 132.829 87.6417 132.565 87.7283C132.059 87.8934 131.682 88.2209 131.445 88.6703C131.066 89.3903 130.692 90.1144 130.399 90.8695C129.549 93.0509 128.937 95.3091 128.325 97.564L128.122 98.3119C128.069 98.5046 128.015 98.6964 127.96 98.892L127.839 99.3188L127.454 99.471C127.166 99.5842 126.884 99.6947 126.608 99.8169L126.568 99.8343C126.295 99.9531 126.017 100.074 125.777 100.245C125.317 100.571 125.041 101.042 125.105 101.61C125.2 102.453 125.474 103.207 126.418 103.471C126.495 103.491 126.568 103.531 126.653 103.578C126.693 103.6 126.737 103.624 126.785 103.648C126.777 103.711 126.77 103.773 126.764 103.833C126.751 103.96 126.739 104.083 126.709 104.201C126.571 104.745 126.428 105.291 126.272 105.831C126.108 106.394 126.15 106.945 126.336 107.492C126.508 107.998 126.858 108.308 127.359 108.51C128.105 108.81 129.21 108.305 129.574 107.401C129.669 107.166 129.728 106.915 129.787 106.664L129.804 106.591L129.966 105.916C130.217 104.863 130.469 103.81 130.704 102.754C130.801 102.314 131.012 102.041 131.446 101.888C132.498 101.516 133.548 101.138 134.597 100.76C135.399 100.471 136.202 100.182 137.006 99.8954C137.116 99.8563 137.237 99.8502 137.361 99.8438C137.423 99.8407 137.485 99.8375 137.547 99.8304L137.693 100.079C137.815 100.285 137.928 100.477 138.03 100.676C138.982 102.509 139.931 104.343 140.878 106.175C140.919 106.253 140.957 106.332 140.995 106.41C141.067 106.557 141.138 106.703 141.223 106.842C141.911 107.963 143.374 108.002 144.098 106.906C144.573 106.185 144.719 105.431 144.272 104.609C143.926 103.969 143.602 103.317 143.278 102.665C143.087 102.281 142.897 101.896 142.701 101.514C142.318 100.764 141.931 100.016 141.527 99.2327L140.925 98.0683L140.973 97.9167C141.017 97.7774 141.065 97.6262 141.103 97.4728C141.285 96.7135 140.992 96.0287 140.318 95.6389L140.265 95.6072C140.173 95.5516 140.079 95.4944 139.979 95.4819C139.553 95.4251 139.347 95.1368 139.156 94.7944L139.058 94.6151C138.622 93.8259 138.186 93.0354 137.71 92.273C137.045 91.2133 136.359 90.1671 135.634 89.1494C135.33 88.7244 134.933 88.3482 134.521 88.022C134.16 87.7378 133.762 87.6038 133.341 87.5997ZM135.597 96.4442C135.341 95.6078 134.12 93.5344 133.593 93.0363C133.214 93.575 132.92 94.4601 132.238 97.1764C132.214 97.2679 132.214 97.3653 132.214 97.4702C132.214 97.5173 132.214 97.566 132.212 97.6162C133.819 97.2183 135.027 96.7974 135.597 96.4442Z" fill="white"/>
<path d="M119.723 87.6065C119.607 87.6065 119.485 87.6146 119.362 87.6309C118.269 87.7906 117.688 88.4307 117.701 89.462C117.701 89.5568 117.71 89.6507 117.719 89.7447C117.724 89.8077 117.73 89.8708 117.734 89.9344L117.781 90.8657C117.851 92.2276 117.921 93.5888 117.983 94.95C117.989 95.0953 117.966 95.2418 117.942 95.3936C117.932 95.4624 117.921 95.5324 117.912 95.6037C117.058 95.7741 116.237 96.0231 115.422 96.27C114.606 96.5174 113.796 96.7627 112.968 96.9247C112.788 96.6585 112.798 96.3985 112.808 96.1472C112.811 96.0841 112.813 96.0216 112.813 95.9597C112.81 95.3811 112.809 94.802 112.809 94.2228C112.808 93.4121 112.807 92.6012 112.8 91.7912C112.795 91.4136 112.746 91.0347 112.669 90.6665C112.565 90.1753 112.245 89.8301 111.81 89.5892C110.508 88.8706 108.89 89.7936 108.87 91.281C108.867 91.528 108.889 91.7747 108.911 92.0216C108.931 92.2467 108.951 92.4721 108.953 92.698C108.966 94.3397 108.965 95.9827 108.959 97.6257C108.959 97.7718 108.934 97.9178 108.91 98.0568C108.898 98.12 108.888 98.1818 108.88 98.2415C108.682 98.303 108.489 98.361 108.3 98.4181C107.893 98.5406 107.501 98.6584 107.116 98.7951C106.544 98.9967 106.154 99.4014 106.001 99.9969C105.676 101.247 106.847 102.52 108.123 102.31C108.28 102.285 108.437 102.252 108.588 102.221L108.819 102.174C108.981 102.459 108.974 102.721 108.967 102.973C108.966 103.037 108.964 103.101 108.965 103.164C108.976 103.922 108.98 104.681 108.974 105.439C108.969 105.896 109.103 106.31 109.34 106.695C109.763 107.39 110.556 107.677 111.313 107.38C112.179 107.039 112.738 106.438 112.735 105.458C112.735 104.747 112.718 104.036 112.701 103.325L112.683 102.524C112.676 102.252 112.666 101.979 112.655 101.708L112.643 101.388C112.635 101.094 112.784 100.916 113.062 100.836C113.122 100.818 113.182 100.797 113.242 100.776C113.302 100.755 113.362 100.734 113.423 100.716L114.505 100.395C115.478 100.107 116.452 99.8188 117.426 99.5354C117.564 99.4948 117.705 99.4711 117.868 99.4438C117.95 99.4301 118.037 99.4154 118.131 99.3973L118.168 99.7076C118.197 99.9363 118.223 100.15 118.234 100.364C118.337 102.288 118.433 104.213 118.521 106.139C118.539 106.553 118.593 106.953 118.762 107.336C119.121 108.151 119.946 108.526 120.796 108.253C121.782 107.937 122.32 107.147 122.269 106.091C122.257 105.842 122.241 105.594 122.224 105.346C122.204 105.027 122.183 104.707 122.171 104.387L122.147 103.685C122.091 102.056 122.035 100.428 121.814 98.8113C121.802 98.7237 121.811 98.6333 121.818 98.5592L121.825 98.4838C121.843 98.4613 121.856 98.4422 121.867 98.4264C121.888 98.3967 121.901 98.379 121.918 98.3728C122.12 98.2956 122.324 98.2185 122.53 98.1535C123.027 97.9993 123.434 97.7367 123.786 97.3415C124.486 96.5552 124.246 94.7931 122.799 94.4831C122.603 94.441 122.402 94.4154 122.192 94.3885C122.078 94.374 121.961 94.3591 121.841 94.341C121.833 94.2887 121.824 94.2378 121.815 94.1878C121.795 94.0798 121.776 93.9759 121.771 93.8714L121.713 92.6403C121.672 91.7576 121.632 90.8744 121.583 89.9912C121.562 89.6163 121.537 89.2292 121.434 88.8692C121.202 88.0734 120.546 87.6119 119.723 87.6065Z" fill="white"/>
<path d="M95.6894 89.4512C96.5014 89.2901 97.3175 89.148 98.1498 89.1561C98.2676 89.1575 98.3867 89.1602 98.5071 89.167C99.3124 89.213 100.054 89.4458 100.727 89.8937C101.407 90.3498 101.884 90.9683 102.115 91.7506C102.313 92.4246 102.243 93.0661 101.705 93.5872C101.148 94.1299 100.48 94.3383 99.713 94.1935C99.2867 94.1136 98.9321 93.8836 98.7535 93.4924C98.472 92.8712 97.9861 92.8415 97.4122 92.9064C96.2375 93.039 95.1331 93.3963 94.068 93.889C92.919 94.4222 91.8173 95.0394 90.7995 95.7878C89.5273 96.7189 88.2822 97.6893 87.0479 98.6692C86.4294 99.1605 85.8637 99.7194 85.4441 100.396C84.7282 101.549 85.0016 101.732 85.8921 102.281C86.6554 102.751 87.5081 102.991 88.4148 102.985C88.6909 102.984 88.9672 102.984 89.2435 102.984C90.0725 102.984 90.902 102.984 91.7293 102.946C94.9139 102.797 98.0984 102.617 101.261 102.204C101.796 102.135 102.324 102.021 102.852 101.907C103.095 101.854 103.338 101.802 103.582 101.754C103.642 101.742 103.702 101.728 103.762 101.715C103.885 101.687 104.009 101.659 104.135 101.648C104.897 101.58 105.722 101.985 105.987 102.932C106.222 103.778 106.017 104.508 105.248 104.962C104.848 105.198 104.389 105.362 103.937 105.477C103.298 105.641 102.64 105.753 101.985 105.842C100.953 105.984 99.9201 106.121 98.882 106.202C97.3325 106.324 95.7816 106.429 94.2304 106.533C93.5136 106.582 92.7967 106.63 92.0798 106.68V106.63C91.7305 106.64 91.3814 106.652 91.0325 106.664C90.3717 106.687 89.7112 106.709 89.0496 106.721C87.7801 106.745 86.5282 106.639 85.3196 106.204C84.1029 105.769 83.0513 105.099 82.2325 104.095C81.097 102.706 80.8142 101.178 81.5166 99.5015C81.813 98.7991 82.219 98.159 82.717 97.5865C83.1109 97.1358 83.5169 96.6919 83.9649 96.2953C85.9977 94.4885 88.1536 92.8455 90.5167 91.4921C92.1394 90.561 93.8406 89.8166 95.6894 89.4512Z" fill="white"/>
<path d="M191.576 40.3263C190.427 40.3263 190.209 41.5403 190.209 42.8193C190.209 44.6394 191.379 48.5222 192.632 52.6765C194.073 57.4552 195.622 62.5934 195.622 65.3642C195.622 66.4171 195.537 68.3241 194.691 68.592C194.211 68.7298 192.357 65.9946 189.978 62.4842C185.952 56.5453 180.422 48.3874 177.499 48.1679C172.7 47.7998 170.115 68.2253 170.139 73.2559C170.139 78.2418 171.046 81.6334 174.798 81.6131C178.184 81.6131 178.425 73.9761 178.613 68.0482C178.732 64.2883 178.829 61.216 179.693 61.216C180.296 61.216 181.88 63.6881 183.894 66.8316C187.412 72.3234 192.243 79.8644 195.453 79.8523C200.913 79.8334 204.15 71.8483 204.141 66.6594C204.101 54.7955 196.173 40.2898 191.576 40.3263Z" fill="white"/>
<path fill-rule="evenodd" clip-rule="evenodd" d="M246.732 44.6734C246.97 44.4826 247.203 44.4027 247.424 44.4163C248.611 44.4907 249.414 47.2584 248.394 49.4103C248.092 50.0581 247.447 51.21 246.657 52.6174C244.429 56.5915 241.058 62.6035 241.068 65.0556C241.068 65.7364 241.282 66.5065 241.67 67.3036C247.77 59.5243 258.221 47.9744 263.664 47.682C265.596 47.5507 271.775 50.0478 271.817 60.5095C271.84 70.9348 259.248 83.0707 247.911 83.114C247.345 83.114 246.825 83.0693 246.304 83.0139C245.196 87.7223 241.968 98.7593 239.976 104.802C239.31 106.708 238.903 109.03 238.554 111.019C238.138 113.399 237.804 115.3 237.211 115.441C234.342 116.026 229.576 111.396 229.482 106.683C229.344 98.6119 233.304 85.8962 235.645 78.3826L235.653 78.3565C235.956 77.3828 236.232 76.4969 236.468 75.7204C235.179 73.1327 234.578 70.3203 234.578 67.9965C234.56 57.9002 243.841 47.05 246.732 44.6734ZM266.608 59.4146C266.608 56.854 265.953 55.1 264.237 55.1C261.79 55.0594 255.142 65.5604 250.572 73.494C257.272 73.601 266.608 67.1737 266.608 59.4146Z" fill="white"/>
<path d="M228.135 44.9238C227.806 44.917 227.47 44.9333 227.132 44.9685C224.9 45.2114 222.509 45.3933 220.165 45.5718C212.727 46.1378 205.751 46.6688 205.751 49.0016C205.751 50.9092 208.253 52.0609 209.975 52.8536C210.846 53.2543 211.517 53.5633 211.565 53.8319C211.714 54.5952 210.836 57.5821 210.502 58.5187C210.381 58.8792 209.776 59.1494 209.039 59.4784C207.735 60.0609 206.019 60.8277 205.849 62.606C205.824 62.9012 206.025 63.2656 206.238 63.6506C206.5 64.1233 206.778 64.6272 206.677 65.0732C206.474 65.8117 206.144 66.7988 205.786 67.8675C205.004 70.2007 204.093 72.9238 204.095 74.2993C204.095 77.4203 206.395 84.3483 212.703 84.1115C222.709 83.8042 231.655 76.7896 231.809 75.5512C232.018 73.7187 229.281 71.5641 227.362 71.5641C226.595 71.5641 224.405 71.9504 222.006 72.3734C218.407 73.0082 214.339 73.7255 213.912 73.3438C213.193 72.6779 214.552 66.3995 215.899 65.9827C216.849 65.6909 221.279 65.6557 224.313 65.6317C225.613 65.6213 226.658 65.6131 227.062 65.5875C230.992 65.3628 230.25 60.0277 227.821 59.8301C227.515 59.8013 226.815 59.7781 225.93 59.7489C223.244 59.6601 218.848 59.5148 218.518 58.9816C218.118 58.2954 218.658 54.7292 219.492 54.361C220.647 53.8711 226.054 53.5804 229.877 53.3748C231.872 53.2676 233.435 53.1835 233.737 53.1064C235.183 52.7261 236.238 51.9574 236.586 50.7177C236.91 49.5443 233.082 45.0104 228.135 44.9238Z" fill="white"/>
<path d="M130.549 57.2127C130.531 45.974 150.343 45.5274 154.25 45.4949L154.353 45.4948C159.583 45.4892 168.715 45.4795 168.715 49.0787C168.715 52.3679 160.104 52.9329 152.148 53.4549C145.33 53.9022 138.993 54.318 138.97 56.3898C138.951 57.5418 143.681 57.9251 148.814 58.341C149.67 58.4102 150.536 58.4804 151.393 58.5552C159.399 59.2563 168.588 60.3918 168.61 70.2093C168.63 74.2452 165.188 82.0692 151.583 82.1328C137.786 82.195 132.872 74.9896 132.872 71.9363C132.842 66.0585 138.382 64.4574 142.247 64.4303C145.927 64.4303 157.789 65.8609 157.789 68.8519C157.789 70.4814 154.804 72.0743 151.247 72.1041C149.288 72.1085 146.858 71.144 144.646 70.2654C142.793 69.5297 141.092 68.8543 139.946 68.8587C137.409 68.8587 136.291 70.5626 136.291 71.579C136.291 72.594 136.425 74.57 143.178 74.5307C146.429 74.5307 162.315 72.7578 162.315 68.2902C162.273 66.3075 155.004 64.2991 149.026 63.6954C147.426 63.5319 145.65 63.4914 143.85 63.4502C137.365 63.3022 130.563 63.1468 130.549 57.2127Z" fill="white"/>
<path d="M119.323 66.3983L119.31 67.1628C119.048 80.3517 120.984 81.8946 124.462 81.8946C127.569 81.8946 128.629 81.5129 128.362 70.4692C127.875 49.4983 126.47 45.4692 123.418 45.4692C119.698 45.5107 119.437 60.0908 119.323 66.3983Z" fill="white"/>
<path fill-rule="evenodd" clip-rule="evenodd" d="M115.772 13.2583C115.772 9.44851 119.213 6.36141 123.458 6.36141C128.032 6.54141 131.15 9.20219 131.142 13.2583C131.012 14.7119 130.472 16.2399 129.685 17.531C131.777 17.7097 133.66 18.4973 135.316 19.9116C135.534 20.097 135.755 20.2635 135.986 20.4043C136.445 16.9964 138.836 14.4033 142.776 14.0988C146.533 14.1272 150.737 16.4307 151.454 20.9592C151.971 25.2616 149.948 28.859 144.649 29.6751C143.142 29.8564 141.683 29.5884 140.402 28.9808C139.843 30.0919 139.103 31.0921 138.246 32.0124C135.189 35.2957 131.533 37.6574 127.209 38.9702C125.925 39.36 124.611 39.5725 122.667 39.5278C121.801 39.4953 120.35 39.3708 118.933 39.0081L118.866 38.9926L118.791 38.9756L118.771 38.9723C118.763 38.9706 118.754 38.9688 118.746 38.9688C116.392 38.5263 114.353 37.1986 112.988 35.3458L112.955 35.2957C111.916 33.8503 111.391 32.2357 111.406 30.4451C111.415 29.4179 111.674 28.4624 112.092 27.5394C113.211 25.0573 114.981 23.0975 117.125 21.4586C117.335 21.2989 117.547 21.1459 117.76 20.9971C118.569 20.4273 119.403 19.9279 120.262 19.5002C118.044 18.2605 115.772 15.7256 115.772 13.2583ZM136.979 26.6272C136.979 25.918 136.565 24.0571 134.239 24.0571C131.995 24.0666 128.296 26.6042 125.11 29.3245C124.572 29.782 124.044 30.2516 123.523 30.7307L123.466 30.7835C123.408 30.8375 123.35 30.8914 123.291 30.9445C123.122 31.1029 122.954 31.2612 122.786 31.4209C122.643 31.5563 122.502 31.6916 122.365 31.8256C121.974 32.2059 121.587 32.5889 121.206 32.9787L121.106 33.0781C120.993 33.1885 120.879 33.3004 120.79 33.4348C120.659 33.5755 120.533 33.7136 120.414 33.8462C121.532 34.1981 122.838 34.4092 124.396 34.4092C128.185 34.3944 136.979 30.8918 136.979 26.6272ZM124.9 23.0217C122.684 24.3413 120.425 26.0006 118.497 27.7722C117.92 28.3149 117.352 28.882 116.791 29.4707C116.55 29.7332 116.316 29.9958 116.094 30.2584C116.038 30.0702 115.994 29.8794 115.964 29.6926C115.912 29.4883 115.907 29.2893 115.931 29.0985C116.068 27.0468 119.067 23.9732 124.9 23.0217Z" fill="white"/>
<path fill-rule="evenodd" clip-rule="evenodd" d="M30.8175 4.92545C31.436 4.90921 32.0559 4.89973 32.6771 4.89973C71.8011 4.84289 115.841 36.6112 115.892 58.8421C115.961 75.6676 97.5279 87.9524 74.5918 88.012C68.7113 88.0336 63.161 87.2581 58.0465 85.9507C57.7028 88.4816 56.6092 90.8879 53.3327 90.8879C48.8123 90.9123 47.8568 87.4286 47.5739 82.3358C31.773 75.4646 21.9812 64.1772 21.9812 59.688C21.9609 54.1973 34.1076 48.6429 47.7851 46.537C48.0544 40.1355 48.9761 28.434 52.1322 28.4164C55.9948 28.4096 56.9679 39.0108 57.1912 45.7656H58.2577C82.631 45.6668 90.0937 52.7532 90.1234 58.7569C90.1302 63.303 84.9995 66.1898 84.5353 66.137C83.9694 66.0896 83.3825 66.0663 82.8126 66.0437C80.8608 65.9662 79.1088 65.8967 79.0878 64.8932C79.0878 64.0369 79.8637 63.2932 80.649 62.5404C81.4537 61.7691 82.2683 60.9882 82.2683 60.067C82.2589 57.9516 70.3273 54.7319 61.2297 54.7481C60.4748 54.7481 59.6265 54.7641 58.7213 54.7811C58.2828 54.7894 57.8309 54.7979 57.3698 54.805C57.5079 62.0416 57.8192 73.4548 58.0249 78.8968C62.0337 79.6818 66.2508 80.1325 70.621 80.1095C82.8814 80.1095 105.123 76.2617 105.068 59.171C104.999 37.1431 61.9105 11.1849 24.4917 11.3162C20.1311 11.3162 11.3813 11.6803 11.3813 13.2908C11.3813 14.0122 11.9637 14.2955 12.5401 14.5759C13.1045 14.8505 13.6632 15.1223 13.6632 15.8C13.6862 16.8218 12.1189 16.9693 10.4461 16.9693C8.74763 16.9896 5.92444 16.7677 5.98534 14.3722C6.01832 12.4298 7.34472 11.1002 8.7186 9.72308C9.09269 9.3481 9.47031 8.96959 9.82629 8.57421C11.7346 6.53464 20.2393 5.23267 30.8175 4.92545ZM47.4657 76.0411C47.4467 70.0984 47.5306 61.262 47.5969 55.0865C36.5627 55.6468 24.6541 57.1748 24.6541 61.0929C24.6541 63.6332 33.8924 71.2488 47.4657 76.0411Z" fill="white"/>
</svg>
