<svg width="139" height="120" viewBox="0 0 139 120" fill="none" xmlns="http://www.w3.org/2000/svg">
<path fill-rule="evenodd" clip-rule="evenodd" d="M19.4002 115.819L19.1287 115.548L16.8487 113.271L16.5772 112.865L16.1704 113.271C15.3564 114.085 14.5284 114.627 13.687 115.06C12.873 115.467 11.9096 115.739 10.7561 115.739C8.91064 115.688 7.51299 115.06 6.38684 113.8C5.30138 112.58 4.63604 111.035 4.59536 109.137C4.59536 109.132 4.59548 109.127 4.59561 109.121C4.59585 109.111 4.5961 109.1 4.59536 109.088C4.59609 109.077 4.59586 109.066 4.59561 109.055C4.59549 109.05 4.59536 109.044 4.59536 109.038C4.63881 107.154 5.27398 105.595 6.3326 104.376C7.41806 103.156 8.91064 102.532 10.7561 102.492C11.8415 102.503 12.7507 102.763 13.5921 103.169C14.406 103.576 15.2612 104.118 16.0212 104.863L16.4286 105.27L16.8352 104.863L19.1149 102.234L19.3866 101.828L19.1149 101.556C18.165 100.607 17.025 99.8076 15.7359 99.2245C14.3789 98.6823 12.8324 98.276 10.9598 98.276H10.9094L10.7738 98.3028C7.58495 98.3817 4.99279 99.5228 3.02529 101.529C1.07135 103.562 0.040684 106.097 0 109.12V109.17V109.219C0.0611644 112.255 1.08491 114.857 3.02529 116.863C4.99279 118.883 7.54426 119.913 10.6243 119.994H10.6747C12.5741 119.983 14.1893 119.588 15.5463 118.91C16.9033 118.232 18.0701 117.365 19.1287 116.226L19.4002 115.819ZM129.317 98.8125L138.11 118.964L138.381 119.642H137.702H134.025H133.618L133.519 119.371L131.579 114.803H122.785L120.805 119.371L120.704 119.642H120.433H116.809H116.131L116.403 118.964L125.25 98.8125L125.349 98.5416H125.354H125.626H128.909H129.181L129.317 98.8125ZM127.235 104.452L124.548 110.7H129.962L127.235 104.452ZM109.861 111.744C111.082 111.337 112.154 110.795 112.941 109.86C113.891 108.775 114.406 107.311 114.433 105.59V105.542V105.491C114.43 104.542 114.297 103.702 113.89 102.916C113.619 102.102 113.076 101.465 112.533 100.882V100.832C111.855 100.155 110.973 99.6127 109.955 99.301C108.87 98.8942 107.73 98.7583 106.428 98.7583H97.5391H96.9964L96.9286 98.6423V99.184V119.185V119.728H97.4719H100.946H101.488V119.185V112.679H105.165L109.942 119.483L110.078 119.619H110.349H114.528H115.478L114.935 118.941L109.861 111.744ZM109.752 105.753C109.74 106.702 109.48 107.325 108.802 107.84C108.123 108.383 107.323 108.653 106.115 108.653H101.447V102.892L101.393 102.804H106.02C107.242 102.81 108.191 103.075 108.802 103.617C109.344 104.023 109.752 104.701 109.752 105.704V105.753ZM93.5297 98.6517H92.987H89.4591H89.0517V99.1936V110.715C89.0368 112.49 88.6449 113.765 87.8307 114.592C87.0167 115.405 85.9849 115.811 84.5059 115.811C83.0133 115.804 81.9146 115.269 81.1275 114.456C80.3135 113.643 79.9064 112.328 79.9064 110.539V99.1665V98.6246H79.499H75.9711H75.4284L75.4015 98.6517V99.1936V110.715C75.4328 113.697 76.2152 116.069 77.8841 117.669C79.4987 119.241 81.7242 120 84.4381 120C87.1789 119.999 89.4184 119.187 91.0469 117.614C92.6889 116.001 93.5023 113.629 93.5297 110.566V99.1936V98.6517ZM72.2407 98.6514H72.7831V99.1933V102.474V102.88H72.2407H66.3786V119.161V119.703H65.9712H62.3891H61.8466V119.161V102.88H55.9848H55.5771V102.474V99.1933V98.6514H55.5774H55.5854H55.9928H72.2407ZM59.1608 115.482H58.6181H48.5763V99.1531V98.6112H48.0339H44.5602H44.017L44.0632 98.6516V99.1935V119.196V119.739H44.6065H58.6181H59.1608V119.196V116.025V115.482ZM39.4402 98.6517H39.9826V99.1936V110.566C39.9555 113.629 39.1413 116.001 37.4992 117.614C35.8711 119.187 33.632 119.999 30.8913 120C28.1773 120 25.9519 119.241 24.3373 117.669C22.6684 116.069 21.8838 113.697 21.8539 110.715V99.1936V98.6517L21.881 98.6246H22.4237H25.9522H26.359V99.1665V110.539C26.359 112.328 26.7659 113.643 27.5798 114.456C28.3669 115.269 29.4665 115.804 30.9591 115.811C32.4381 115.811 33.469 115.405 34.283 114.592C35.0972 113.765 35.49 112.49 35.5049 110.715V99.1936V98.6517H35.9115H39.4402Z" fill="#39409E"/>
<path fill-rule="evenodd" clip-rule="evenodd" d="M89.4382 38.1999C89.0978 38.1902 88.7541 38.1811 88.4134 38.1788C88.0724 38.1764 87.7345 38.1822 87.404 38.1999C77.5015 38.7484 70.1388 45.5288 70.7947 57.7955V89.891H87.8111V55.2952L123.267 55.1601V38.1999H89.4382ZM50.3278 38.1924C49.9923 38.1883 49.6538 38.1907 49.3131 38.1999H15.4834V55.1601L50.9402 55.2952V89.891H67.9567V57.7955C68.6347 45.12 60.7282 38.3269 50.3278 38.1924ZM52.3167 34.7569H86.2842V0H52.3167V34.7569Z" fill="#27BA59"/>
</svg>
