<svg width="635" height="120" viewBox="0 0 635 120" fill="none" xmlns="http://www.w3.org/2000/svg">
<path fill-rule="evenodd" clip-rule="evenodd" d="M369.044 0.00506069H455.069C468.662 0.00506069 482.742 6.39279 479.96 28.4886C479.451 32.4527 479.314 33.6693 479.314 33.6693H364.969L369.044 0.00506069ZM331.488 0.0027025C353.423 0.0027025 359.454 13.0327 357.706 27.4046C357.365 30.1945 356.927 33.6689 356.927 33.6689H124.349C124.76 30.3757 125.16 27.0807 125.548 23.7836C127.215 9.51585 139.051 -0.0223625 156.927 0.000774421C166.349 0.0123429 331.488 0.0027025 331.488 0.0027025ZM14.9871 0.0065835H120.447L116.379 33.6689H10.9063L14.9871 0.0065835ZM438.336 46.4879L429.415 119.957L468.863 119.946L477.779 46.5014L438.336 46.4879ZM354.484 119.957L363.394 46.4879L402.852 46.5014L393.935 119.946L354.484 119.957ZM245.581 46.4998L236.671 119.962H276.099L281.652 74.3413H331.176C345.222 74.3413 352.772 66.6965 354.172 56.4294C354.621 53.1247 355.025 49.8161 355.386 46.4998H245.581ZM234.054 78.1739C234.22 76.7649 234.352 75.6497 234.443 74.9718C237.517 51.9968 221.807 46.521 209.435 46.521C206.599 46.521 193.474 46.5174 178.137 46.5131C156.586 46.5071 130.669 46.4998 122.8 46.4998C119.908 65.6727 129.385 74.3394 142.82 74.3394C150.127 74.3394 196.181 74.3201 196.181 74.3201L194.515 88.0827L117.764 88.0885L113.896 119.958C113.896 119.958 197.459 119.987 200.847 119.958C200.961 119.949 201.104 119.941 201.273 119.93C205.222 119.685 223.462 118.551 229.843 103.027C231.632 98.6736 233.249 84.9875 234.054 78.1739ZM111.438 74.3413L114.82 46.4998H9.3714L0.44043 119.962H105.908L109.794 88.0924L43.7547 88.0847L45.4228 74.3413H111.438Z" fill="#FF2925"/>
<path d="M595.178 0.256323L589.469 46.7739H553.947L555.342 34.8889L560.036 0.000732422H520.201L517.156 27.988L514.745 46.7739C511.954 65.6876 521.343 74.3777 534.663 74.3777H586.044L580.462 120.001H619.663L634.253 0.128528L595.178 0.256323Z" fill="#FF2925"/>
</svg>
