<svg width="276" height="120" viewBox="0 0 276 120" fill="none" xmlns="http://www.w3.org/2000/svg">
<g clip-path="url(#clip0_4329_12488)">
<path d="M39.0554 42.0789H50.8181C53.7762 42.0789 55.2535 42.9151 56.7308 45.3576L68.8803 64.2734H69.2984V42.0789H117.447C109.82 17.6963 87.0609 0 60.1662 0C33.2715 0 10.5126 17.6963 2.89264 42.0789H39.0554Z" fill="#FD3823"/>
<path d="M106.29 50.8008V86.2527H94.3394V50.8008H80.6709V86.2527H72.6955C69.7374 86.2527 68.3228 85.4165 66.7828 82.9741L51.3198 59.8249H51.0724V86.2527H39.463V50.8008H25.8467V86.2527H13.6867V50.8008H0.871781C0.411864 53.8007 0.167969 56.8738 0.167969 60.0026C0.167969 93.141 27.0313 120.001 60.1662 120.001C93.3011 120.001 120.164 93.1375 120.164 60.0026C120.164 56.8738 119.924 53.8007 119.461 50.8008H106.287H106.29Z" fill="#FD3823"/>
<path d="M271.251 50.832V51.4836H270.345V54.7378H269.526V51.4836H268.617V50.832H271.251Z" fill="#FD3823"/>
<path d="M271.613 54.7378V50.832H272.927L273.54 53.4905H273.55L274.198 50.832H275.47V54.7378H274.676V51.7275H274.665L273.913 54.7378H273.136L272.421 51.7275H272.407V54.7378H271.613Z" fill="#FD3823"/>
<path d="M127.656 78.2072V51.0547H135.328L142.547 69.859H142.624V51.0547H147.923V78.2072H140.443L133.032 58.3506H132.959V78.2072H127.656Z" fill="#FD3823"/>
<path d="M151.686 64.6329C151.686 57.452 151.686 50.6055 161.048 50.6055C170.41 50.6055 170.41 57.4485 170.41 64.6329C170.41 71.8174 170.41 78.6604 161.048 78.6604C151.686 78.6604 151.686 71.7407 151.686 64.6329ZM164.661 64.6329C164.661 57.6749 164.247 54.6681 161.052 54.6681C157.857 54.6681 157.442 57.6749 157.442 64.6329C157.442 71.5909 157.857 74.5978 161.052 74.5978C164.247 74.5978 164.661 71.5909 164.661 64.6329Z" fill="#FD3823"/>
<path d="M171.992 51.0547H177.898L182.107 70.7998H182.184L186.922 51.0547H192.525L185.344 78.2072H178.685L171.992 51.0547Z" fill="#FD3823"/>
<path d="M194.33 78.2072V51.0547H209.148V55.2288H200.009V61.9255H208.434V66.0995H200.009V74.0331H209.448V78.2072H194.33Z" fill="#FD3823"/>
<path d="M212.42 78.2072V51.0547H218.095V73.6951H226.597V78.2072H212.42Z" fill="#FD3823"/>
<path d="M225.695 78.2076L233.217 51.0586H240.701L248.074 78.2076H242.095L240.59 72.1904H232.844L231.304 78.2076H225.701H225.695ZM236.638 56.2849H236.562L233.966 68.0163H239.381L236.635 56.2849H236.638Z" fill="#FD3823"/>
<path d="M256.492 78.6569C249.46 78.6569 248.143 74.5211 248.443 69.8209H254.122C254.122 72.4167 254.234 74.5978 257.356 74.5978C259.272 74.5978 260.213 73.3574 260.213 71.5143C260.213 66.6259 248.781 66.3263 248.781 58.2394C248.781 53.9886 250.812 50.6055 257.732 50.6055C263.261 50.6055 266.003 53.0862 265.627 58.7655H260.098C260.098 56.7342 259.76 54.6681 257.464 54.6681C255.621 54.6681 254.53 55.682 254.53 57.5635C254.53 62.7166 265.962 62.2637 265.962 70.8C265.962 77.8312 260.809 78.6604 256.485 78.6604" fill="#FD3823"/>
</g>
<defs>
<clipPath id="clip0_4329_12488">
<rect width="275.302" height="120" fill="white" transform="translate(0.167969)"/>
</clipPath>
</defs>
</svg>
