<svg width="755" height="121" viewBox="0 0 755 121" fill="none" xmlns="http://www.w3.org/2000/svg">
<path fill-rule="evenodd" clip-rule="evenodd" d="M713.695 41.013H658.073C656.17 41.013 655.408 42.157 655.408 43.2985V52.0609H713.695V65.7764H655.408V76.0598C655.408 77.5835 656.932 78.3453 658.073 78.3453H713.695V92.443H658.073C646.646 92.443 640.169 84.0603 640.169 76.0598V44.44C640.169 37.5835 645.884 27.6797 656.932 27.6797H713.695V41.013ZM607.028 92.443L586.456 71.8685H560.931C559.407 71.8685 558.266 73.0125 558.266 74.5362V87.4899V92.8227H544.17V44.4425C544.17 35.298 551.789 27.6797 560.931 27.6797H608.169C617.314 27.6797 624.932 35.298 624.932 44.4425V55.1082C624.932 64.2502 617.314 71.8685 608.169 71.8685H606.264L627.218 92.443H607.028ZM528.17 41.013H472.551C470.645 41.013 469.883 42.157 469.883 43.2985V52.0609H528.17V65.7764H469.883V76.0598C469.883 77.5835 471.407 78.3453 472.551 78.3453H528.17V92.443H472.551C461.121 92.443 454.646 84.0603 454.646 76.0598V44.44C454.646 37.5835 460.359 27.6797 471.407 27.6797H528.17V41.013ZM423.787 92.8181H439.026V27.293H423.787V92.8181ZM393.313 92.443V46.3459L372.359 84.8222H359.787L337.694 46.3459V92.8227H322.834V27.6797H340.741L365.12 70.3474L390.263 27.6797H407.788V92.443H393.313ZM307.598 41.013H251.977C250.074 41.013 249.312 42.157 249.312 43.2985V52.0609H307.598V65.7764H249.312V76.0598C249.312 77.5835 250.836 78.3453 251.977 78.3453H307.598V92.443H251.977C240.55 92.443 234.073 84.0603 234.073 76.0598V44.44C234.073 37.5835 239.788 27.6797 250.836 27.6797H307.598V41.013ZM200.932 92.443L180.357 71.8685H154.834C153.311 71.8685 152.169 73.0125 152.169 74.5362V87.4899V92.8227H137.692V44.4425C137.692 35.298 145.31 27.6797 154.455 27.6797H201.691C210.835 27.6797 218.454 35.298 218.454 44.4425V55.1082C218.454 64.2502 210.835 71.8685 201.691 71.8685H200.167L221.121 92.443H200.932ZM122.073 55.1082C122.073 64.2502 114.455 71.8685 105.31 71.8685H58.4538C56.9301 71.8685 55.7861 73.0125 55.7861 74.5362V92.8227H41.6909V87.1077V44.4425C41.6909 35.298 49.3092 27.6797 58.4538 27.6797H105.31C114.455 27.6797 122.073 35.298 122.073 44.4425V55.1082ZM743.409 0.25H11.9764C5.88173 0.25 0.546387 5.20066 0.546387 11.6775V108.823C0.546387 114.917 5.49956 120.25 11.9764 120.25H743.409C749.504 120.25 754.836 115.297 754.836 108.823V11.6775C754.836 5.20066 749.886 0.25 743.409 0.25Z" fill="#338C2E"/>
<path fill-rule="evenodd" clip-rule="evenodd" d="M454.647 44.4425V76.0624C454.647 84.0604 461.124 92.443 472.551 92.443H528.17V78.3453H472.551C471.41 78.3453 469.886 77.586 469.886 76.0624V65.7738H528.17V52.0609H469.886V43.2985C469.886 42.157 470.645 41.013 472.551 41.013H528.17V27.6797H471.41C460.359 27.6797 454.647 37.5835 454.647 44.4425ZM423.79 92.8181H439.029V27.293H423.79V92.8181ZM607.791 57.7686C609.315 57.7686 610.459 56.6246 610.459 55.1009V44.4353C610.459 42.9116 609.315 41.7676 607.791 41.7676H560.552C559.029 41.7676 557.887 42.9116 557.887 44.4353V58.1482C558.647 58.1482 559.791 57.7686 560.552 57.7686H607.791ZM606.266 71.871L627.218 92.443H607.028L586.456 71.871H560.931C559.41 71.871 558.266 73.0125 558.266 74.5387V87.4899V92.8227H544.17V44.4425C544.17 35.298 551.789 27.6797 560.931 27.6797H608.172C617.314 27.6797 624.932 35.298 624.932 44.4425V55.1082C624.932 64.2502 617.314 71.871 608.172 71.871H606.266ZM658.076 41.013H713.695V27.6797H656.934C645.887 27.6797 640.172 37.5835 640.172 44.4425V76.0624C640.172 84.0604 646.646 92.443 658.076 92.443H713.695V78.3453H658.076C656.934 78.3453 655.408 77.586 655.408 76.0624V65.7738H713.695V52.0609H655.408V43.2985C655.408 42.157 656.17 41.013 658.076 41.013ZM365.122 70.3474L340.741 27.6797H322.837V92.8227H337.694V46.3459L359.787 84.8247H372.359L393.313 46.3459V92.443H407.788V27.6797H390.265L365.122 70.3474ZM201.693 57.7686C203.217 57.7686 204.361 56.6246 204.361 55.1009V44.4353C204.361 42.9116 203.217 41.7676 201.693 41.7676H154.454C152.931 41.7676 151.787 42.9116 151.787 44.4353V58.1482C152.548 58.1482 153.692 57.7686 154.454 57.7686H201.693ZM200.17 71.871L221.121 92.443H200.932L180.36 71.871H154.834C153.311 71.871 152.169 73.0125 152.169 74.5387V87.4899V92.8227H137.692V44.4425C137.692 35.298 145.313 27.6797 154.455 27.6797H201.693C210.835 27.6797 218.456 35.298 218.456 44.4425V55.1082C218.456 64.2502 210.835 71.871 201.693 71.871H200.17ZM108.739 44.4353C108.739 42.9116 107.598 41.7676 106.072 41.7676H58.4533C56.9297 41.7676 55.7856 42.9116 55.7856 44.4353V58.1482C56.55 58.1482 57.6915 57.7686 58.4533 57.7686H106.072C107.598 57.7686 108.739 56.6246 108.739 55.1009V44.4353ZM122.073 44.4425V55.1082C122.073 64.2502 114.455 71.871 105.313 71.871H58.4538C56.9301 71.871 55.7861 73.0125 55.7861 74.5387V92.8227H41.6909V87.1077V44.4425C41.6909 35.298 49.3118 27.6797 58.4538 27.6797H105.313C114.455 27.6797 122.073 35.298 122.073 44.4425ZM250.836 27.6797H307.599V41.013H251.98C250.074 41.013 249.312 42.157 249.312 43.2985V52.0609H307.599V65.7738H249.312V76.0624C249.312 77.586 250.836 78.3453 251.98 78.3453H307.599V92.443H251.98C240.553 92.443 234.073 84.0604 234.073 76.0624V44.4425C234.073 37.5835 239.788 27.6797 250.836 27.6797Z" fill="white"/>
<path fill-rule="evenodd" clip-rule="evenodd" d="M610.457 55.1097V44.444C610.457 42.9179 609.313 41.7764 607.789 41.7764H560.55C559.027 41.7764 557.885 42.9179 557.885 44.444V58.157C558.647 58.157 559.788 57.7774 560.55 57.7774H607.789C609.313 57.7774 610.457 56.6334 610.457 55.1097Z" fill="#338C2E"/>
<path fill-rule="evenodd" clip-rule="evenodd" d="M204.358 55.1097V44.444C204.358 42.9179 203.214 41.7764 201.69 41.7764H154.452C152.928 41.7764 151.787 42.9179 151.787 44.444V58.157C152.548 58.157 153.69 57.7774 154.452 57.7774H201.69C203.214 57.7774 204.358 56.6334 204.358 55.1097Z" fill="#338C2E"/>
<path fill-rule="evenodd" clip-rule="evenodd" d="M106.071 41.7764H58.4528C56.9292 41.7764 55.7852 42.9204 55.7852 44.444V58.157C56.547 58.157 57.691 57.7774 58.4528 57.7774H106.071C107.595 57.7774 108.739 56.6334 108.739 55.1097V44.444C108.739 42.9204 107.595 41.7764 106.071 41.7764Z" fill="#338C2E"/>
</svg>
