<svg width="126" height="120" viewBox="0 0 126 120" fill="none" xmlns="http://www.w3.org/2000/svg">
<path d="M9.16295 102.909H4.15542V96.4668H0.849609V113.07C0.849609 113.07 1.37965 118.447 6.42903 119.248H10.4253C10.4253 119.248 15.6002 118.447 15.9141 113.607V108.92C15.9141 108.92 15.6142 103.334 9.16295 102.909ZM13.0058 112.757C12.8942 115.257 11.2692 116.239 10.0696 116.239H6.92421C4.31583 116.191 4.13449 112.757 4.13449 112.757V106.043H9.71392C12.8593 106.203 13.0197 109.825 13.0197 109.825L13.0058 112.757Z" fill="#84AD7E"/>
<path d="M32.6732 108.495C31.9269 103.543 26.5428 102.923 26.5428 102.923H23.7182C18.5991 103.132 17.7901 106.837 17.6436 108.537C17.5627 110.275 17.5744 112.016 17.6785 113.753C18.0551 119.074 23.2579 119.262 23.2579 119.262H27.2053C31.5922 119.262 32.6941 113.69 32.6941 113.69C32.8819 111.963 32.8749 110.221 32.6732 108.495ZM29.5836 113.53C29.5836 113.53 29.4232 115.71 26.759 116.24H23.8647C23.1468 116.189 22.4687 115.891 21.9461 115.397C21.4234 114.903 21.0884 114.243 20.9982 113.53V109.163C20.9982 109.163 21.4795 106.378 23.8786 106.294H26.487C26.487 106.294 29.3186 106.294 29.5836 109.54V113.53Z" fill="#84AD7E"/>
<path d="M38.1619 119.248C38.3781 118.984 41.6491 113.976 41.6491 113.976L45.1362 119.248C45.1362 119.248 49.0837 119.673 48.979 119.248C48.8744 118.823 43.5391 111.079 43.5391 111.079L48.8186 102.909H44.9898L41.8932 107.854L38.1619 102.909H34.6748L39.9055 111.169L34.3261 119.248H38.1619Z" fill="#84AD7E"/>
<path d="M59.9426 102.909H54.9281V96.4668H51.6223V113.07C51.6223 113.07 52.1593 118.447 57.2017 119.248H61.198C61.198 119.248 66.3729 118.447 66.6937 113.607V108.92C66.6937 108.92 66.4078 103.334 59.9426 102.909ZM63.7785 112.757C63.6739 115.257 62.0489 116.239 60.8493 116.239H57.7039C55.0885 116.191 54.9142 112.757 54.9142 112.757V106.043H60.4587C63.6041 106.203 63.7645 109.825 63.7645 109.825L63.7785 112.757Z" fill="#84AD7E"/>
<path d="M68.5 119.248V107.569C68.5 106.712 69.4067 102.909 74.4421 102.909H76.7646V105.96H75.3697C75.3697 105.96 73.4588 105.96 72.7474 106.517C72.5206 106.677 72.3315 106.885 72.193 107.125C72.0545 107.366 71.97 107.634 71.9453 107.91V119.22L68.5 119.248Z" fill="#84AD7E"/>
<path d="M117.201 96.4668V114.575C117.201 114.575 117.376 118.928 123.241 119.645H125.85V116.532H124.197C124.197 116.532 120.772 116.288 120.668 114.408V96.4668H117.201Z" fill="#84AD7E"/>
<path d="M87.6165 103.557C84.5478 102.826 84.1921 103.069 84.1921 103.069C84.1921 103.069 77.2667 102.373 77.1411 108.042H80.6283C80.6283 108.042 80.5725 106.573 82.9368 106.447H85.3708C85.3708 106.447 87.4631 106.496 87.4631 108.042C87.4631 109.588 85.3708 109.79 85.3708 109.79C85.3708 109.79 78.1664 109.094 77.0993 113.844C76.0322 118.593 81.2839 120 82.2742 120H85.6009C85.6009 120 90.3923 119.722 90.999 116.149V107.436C90.8788 106.529 90.4939 105.678 89.8924 104.988C89.2909 104.298 88.4994 103.801 87.6165 103.557ZM87.3933 115.264C87.1353 116.532 85.3638 116.706 85.3638 116.706H82.2672C82.0371 116.711 81.8083 116.67 81.5941 116.586C81.3799 116.502 81.1845 116.376 81.0192 116.216C80.8538 116.056 80.7218 115.865 80.6308 115.654C80.5398 115.443 80.4915 115.216 80.4888 114.986C80.5655 113.537 81.521 113.196 82.5811 113.189C83.6412 113.182 85.7544 113.189 85.7544 113.189C86.3179 113.255 86.8877 113.137 87.3794 112.855L87.3933 115.264Z" fill="#84AD7E"/>
<path d="M94.1863 102.909L109.488 103.028V106.51C109.488 106.51 108.742 112.36 103.734 112.632C98.7265 112.903 99.7308 113.105 99.7308 113.105C99.0673 113.288 98.4831 113.685 98.0693 114.235C97.6555 114.784 97.4354 115.455 97.4433 116.142H109.488V119.283H94.1863V117.688C94.1863 117.688 93.9212 109.86 100.463 109.755L102.813 109.651C102.813 109.651 105.666 109.916 106.14 106.238C106.14 106.238 94.1723 106.19 94.1723 106.238L94.1863 102.909Z" fill="#84AD7E"/>
<path d="M114.747 96.4668H111.49V99.7193H114.747V96.4668Z" fill="#84AD7E"/>
<path d="M114.747 102.909H111.49V119.248H114.747V102.909Z" fill="#84AD7E"/>
<path d="M0.849613 53.6348V81.8483C0.849613 81.8483 0.793819 89.9412 14.2821 89.9412V84.676L10.8717 84.6203C10.8717 84.6203 6.23376 83.7706 6.12914 80.9429V68.5181H14.2821V63.037H6.07335V53.6348H0.849613Z" fill="#3A646D"/>
<path d="M17.4135 89.9692V70.8723C17.4135 69.4794 18.892 63.2112 27.1287 63.2112H30.9297V68.2606H28.6072C28.6072 68.2606 25.4897 68.2606 24.318 69.1799C23.9417 69.4438 23.6293 69.7884 23.4036 70.1885C23.178 70.5885 23.0448 71.034 23.0138 71.4921V89.9901L17.4135 89.9692Z" fill="#3A646D"/>
<path d="M50.1577 63.8102C45.3176 62.6471 44.7875 63.0371 44.7875 63.0371C44.7875 63.0371 33.8449 61.9924 33.6287 70.8723H39.1035C39.1035 70.8723 39.0198 68.5601 42.7441 68.3581H46.5799C46.5799 68.3581 49.8997 68.4347 49.9345 70.8723C49.9694 73.3099 46.6566 73.6581 46.6566 73.6581C46.6566 73.6581 35.3234 72.4393 33.6287 80.0168C31.9339 87.5943 40.2194 89.7185 41.7816 89.7185H47.0193C47.0193 89.7185 54.5724 89.2797 55.5349 83.6523V69.9182C55.5349 69.9182 54.9979 64.9663 50.1577 63.8102ZM49.7951 82.2525C49.3975 84.2513 46.6008 84.5299 46.6008 84.5299H41.7188C41.3568 84.5354 40.9973 84.4694 40.6609 84.3357C40.3245 84.2021 40.0178 84.0033 39.7586 83.7509C39.4993 83.4985 39.2926 83.1974 39.1503 82.8649C39.0079 82.5325 38.9328 82.1752 38.9291 81.8137C39.0477 79.5363 40.5541 79.0278 42.2489 78.9791C43.9436 78.9303 47.2495 78.9791 47.2495 78.9791C49.2022 78.9791 49.802 78.4568 49.802 78.4568L49.7951 82.2525Z" fill="#3A646D"/>
<path d="M55.5558 63.0372L66.3102 89.9693H71.3735L82.1976 63.0372L76.3322 62.9745C76.3322 62.9745 68.7721 82.0923 68.7721 82.2525C68.7721 82.4127 61.2957 63.0372 61.2957 63.0372H55.5558Z" fill="#3A646D"/>
<path d="M107.968 74.306C107.968 74.306 107.968 63.0373 95.6928 63.0373C83.4181 63.0373 82.902 73.8324 82.902 73.8324V78.8678C82.902 78.8678 83.0694 89.1684 93.489 90.0669L107.968 89.9763V84.732L95.2953 84.7807C95.2953 84.7807 94.298 84.725 93.5448 84.6066C92.134 84.4545 90.8211 83.814 89.8338 82.7963C88.8465 81.7786 88.2472 80.4478 88.1397 79.0349H107.968V74.306ZM88.1815 73.8672C88.3793 72.4492 89.0449 71.1374 90.0732 70.1396C91.1014 69.1419 92.4335 68.515 93.8586 68.3582H96.8924C101.774 68.8388 102.374 73.707 102.409 73.8672C102.444 74.0274 88.1606 73.9926 88.1815 73.8672Z" fill="#3A646D"/>
<path d="M112.103 53.6349V81.7997C112.103 81.7997 112.368 88.5554 121.484 89.6767L125.536 89.621V84.7457H122.976C122.976 84.7457 117.641 84.3697 117.487 81.4445V53.6349H112.103Z" fill="#3A646D"/>
<path d="M63.3186 50.758H62.3701C31.4601 50.1938 23.1677 24.383 23.0631 24.0975C22.9382 23.6985 22.9772 23.2663 23.1714 22.896C23.3656 22.5258 23.6992 22.2477 24.0987 22.123C24.4983 21.9983 24.931 22.0373 25.3018 22.2312C25.6726 22.4252 25.9511 22.7583 26.0759 23.1573C26.3828 24.1393 33.8523 47.0667 62.4259 47.5821H63.3116C91.2087 47.5821 99.4035 23.3801 99.4802 23.1364C99.5448 22.9397 99.6475 22.7577 99.7825 22.6007C99.9175 22.4437 100.082 22.3148 100.267 22.2214C100.452 22.1279 100.653 22.0717 100.86 22.0561C101.067 22.0404 101.274 22.0655 101.471 22.13C101.668 22.1945 101.851 22.297 102.008 22.4319C102.165 22.5667 102.294 22.7311 102.388 22.9157C102.481 23.1004 102.537 23.3016 102.553 23.508C102.569 23.7143 102.544 23.9217 102.479 24.1184C102.395 24.383 93.4823 50.758 63.3186 50.758Z" fill="#3A646D"/>
<path d="M62.7741 37.1492C59.0953 37.1492 55.4991 36.0598 52.4403 34.0188C49.3815 31.9778 46.9974 29.0768 45.5896 25.6828C44.1818 22.2887 43.8134 18.554 44.5311 14.9509C45.2488 11.3478 47.0204 8.03808 49.6217 5.44038C52.223 2.84268 55.5373 1.07362 59.1454 0.356914C62.7535 -0.359791 66.4934 0.00804794 69.8922 1.41391C73.291 2.81978 76.196 5.20053 78.2398 8.2551C80.2836 11.3097 81.3745 14.9009 81.3745 18.5746C81.3708 23.4997 79.41 28.2221 75.9225 31.7047C72.4351 35.1873 67.7061 37.1455 62.7741 37.1492ZM62.7741 2.32618C59.5557 2.32618 56.4096 3.27931 53.7337 5.06502C51.0578 6.85072 48.9723 9.38879 47.741 12.3582C46.5097 15.3276 46.1879 18.595 46.8163 21.7471C47.4447 24.8991 48.995 27.7943 51.2713 30.0664C53.5475 32.3385 56.4474 33.8855 59.6041 34.5116C62.7608 35.1378 66.0326 34.815 69.0056 33.5842C71.9786 32.3533 74.5193 30.2696 76.3064 27.5967C78.0934 24.9237 79.0465 21.7815 79.0451 18.5676C79.0396 14.2613 77.3231 10.1331 74.2725 7.08931C71.2219 4.04555 67.0865 2.33499 62.7741 2.33315V2.32618Z" fill="#3A646D"/>
<path d="M62.7742 29.3837C60.6331 29.3851 58.5397 28.7523 56.7588 27.5654C54.9778 26.3786 53.5894 24.6909 52.7691 22.7159C51.9488 20.7409 51.7334 18.5674 52.1503 16.4702C52.5671 14.373 53.5975 12.4463 55.111 10.934C56.6245 9.42159 58.5531 8.39143 60.653 7.9738C62.7528 7.55616 64.9296 7.76981 66.9078 8.58772C68.8861 9.40563 70.577 10.791 71.7666 12.5687C72.9563 14.3464 73.5913 16.4365 73.5913 18.5746C73.5895 21.4396 72.4494 24.1868 70.4214 26.2133C68.3934 28.2398 65.6431 29.38 62.7742 29.3837Z" fill="#3A646D"/>
</svg>
