<svg width="160" height="120" viewBox="0 0 160 120" fill="none" xmlns="http://www.w3.org/2000/svg">
<path d="M111.731 72.5136C111.208 72.1627 110.71 71.7607 110.257 71.3077C109.931 70.9823 109.632 70.625 109.357 70.2549C109.108 69.9167 108.617 69.9167 108.375 70.2549C108.1 70.6313 107.794 70.9887 107.462 71.3204C106.626 72.1627 104.285 74.1215 100.699 74.1215C97.1064 74.1215 94.7647 72.1563 93.9289 71.3141C93.5907 70.9823 93.2908 70.6186 93.0101 70.2357C92.7804 69.9231 92.321 69.9167 92.0913 70.2294C90.3494 72.5838 87.5547 74.1152 84.409 74.1152C81.7355 74.1152 79.3237 73.0113 77.5818 71.2439V71.6586C77.5818 72.1308 77.3967 72.5838 77.0586 72.9156C76.7268 73.2538 76.2738 73.4388 75.7952 73.4388H69.8804C68.8978 73.4388 68.1002 72.6412 68.1002 71.6586C68.1002 71.6395 68.0747 71.6267 68.0619 71.6395C66.2881 73.2283 64.0549 74.1088 61.7068 74.1088C61.7068 74.1088 61.7068 74.1088 61.7005 74.1088C59.7544 74.1088 57.904 73.5345 56.3344 72.4753C56.1557 72.3541 55.9133 72.3733 55.7665 72.5328C55.2561 73.0879 54.5223 73.4388 53.7056 73.4388H48.9329C48.3395 73.4388 47.7844 73.1389 47.4526 72.6476C47.4143 72.5902 47.3313 72.5902 47.2931 72.6476C46.974 73.1262 46.4317 73.4388 45.8128 73.4388H39.8979C38.9153 73.4388 38.1178 72.6412 38.1178 71.6586V71.1928C37.8689 71.4481 37.6328 71.665 37.4286 71.8437C35.6995 73.3112 33.4982 74.1279 31.2267 74.1279C28.2406 74.1279 26.1414 72.8135 24.9482 71.7799C19.4545 72.8965 15.3199 77.8797 15.071 83.501C14.7073 91.7129 21.0624 98.6613 29.2551 99.0186C33.8555 99.2228 38.0093 97.3597 40.8742 94.1885C53.31 81.7846 83.2031 86.0469 85.4491 105.942C85.8638 113.496 91.9509 119.647 99.665 119.985C107.883 120.349 114.838 113.975 115.202 105.757C115.387 101.545 112.994 96.7663 110.225 93.978C101.713 85.3897 105.478 77.5033 111.737 72.5136" fill="#FF6700"/>
<path d="M159.655 70.5742L159.234 71.0464L158.813 70.5742H158.781V71.4611H158.941V70.9124L159.222 71.2378H159.253L159.528 70.9124V71.4611H159.681V70.5742H159.655Z" fill="#FF6700"/>
<path d="M157.907 70.7277H158.175V71.4615H158.335V70.7277H158.596V70.5938H157.907V70.7277Z" fill="#FF6700"/>
<path d="M149.376 56.7539C147.232 56.7539 145.267 57.628 143.863 59.0382C142.46 60.4419 141.579 62.4071 141.579 64.551V71.6654H147.494V68.5516V64.6722C147.494 63.8172 147.698 63.0898 148.043 62.5283C148.394 61.9732 148.84 61.6414 149.37 61.6414C149.899 61.6414 150.346 61.9732 150.697 62.5283C151.042 63.0898 151.246 63.8236 151.246 64.6722V71.6654H157.161V64.551C157.161 62.4071 156.286 60.4419 154.876 59.0382C153.473 57.6344 151.507 56.7539 149.37 56.7539" fill="#FF6700"/>
<path d="M133.061 68.054C132.028 68.054 131.185 66.4843 131.185 64.5446C131.185 62.6049 132.028 61.0353 133.061 61.0353C134.095 61.0353 134.937 62.6049 134.937 64.5446C134.937 66.4843 134.095 68.054 133.061 68.054ZM133.061 56.7539C128.761 56.7539 125.271 60.2441 125.271 64.5446C125.271 68.8451 128.761 72.3353 133.061 72.3353C137.362 72.3353 140.852 68.8451 140.852 64.5446C140.852 60.2441 137.362 56.7539 133.061 56.7539Z" fill="#FF6700"/>
<path d="M115.317 63.1464C115.425 62.6933 115.565 62.2914 115.706 61.9915C115.967 61.43 116.503 60.9706 117.033 60.9642C117.569 60.9642 117.996 61.3407 118.373 62.0106C118.532 62.2977 118.679 62.8018 118.743 63.1336L115.317 63.1464ZM117.033 56.7466C114.889 56.7466 112.924 57.6208 111.526 59.0309C110.123 60.4282 109.242 62.3998 109.242 64.5437C109.242 66.6876 110.123 68.6528 111.526 70.0502C112.892 71.4156 114.825 72.3344 117.071 72.3344C119.381 72.3344 121.302 71.3008 122.59 70.0055C124.217 68.136 124.294 66.1389 124.294 66.1389H119.024C119.024 66.1389 118.296 67.9765 117.033 67.9765C116.503 67.9765 116.057 67.5936 115.706 66.9492C115.47 66.5026 115.304 65.9666 115.214 65.354H124.396C124.396 65.354 125.028 61.6086 122.514 59.0692C121.053 57.5952 119.196 56.7402 117.027 56.7402" fill="#FF6700"/>
<path d="M100.698 61.0352C101.732 61.0352 102.574 62.6049 102.574 64.5446C102.574 66.4843 101.732 68.0539 100.698 68.0539C99.6648 68.0539 98.8225 66.4843 98.8225 64.5446C98.8225 62.6049 99.6648 61.0352 100.698 61.0352ZM95.192 59.0445C93.7882 60.4418 92.9077 62.4135 92.9077 64.551C92.9077 66.6948 93.7819 68.6601 95.192 70.0574C96.0853 70.9571 98.0122 72.3417 100.698 72.3417C103.385 72.3417 105.312 70.9571 106.205 70.0574C107.609 68.6537 108.489 66.6885 108.489 64.5446H108.502L108.496 52.1534C108.496 50.52 107.168 49.1992 105.535 49.1992C103.901 49.1992 102.581 50.5264 102.581 52.1598V56.9963C101.975 56.8432 101.349 56.7666 100.698 56.7666C98.5546 56.7666 96.5893 57.6471 95.192 59.0509" fill="#FF6700"/>
<path d="M84.4025 68.054C83.3689 68.054 82.5266 66.4843 82.5266 64.5446C82.5266 62.6049 83.3689 61.0353 84.4025 61.0353C85.4362 61.0353 86.2784 62.6049 86.2784 64.5446C86.2784 66.4843 85.4362 68.054 84.4025 68.054ZM84.4025 72.3353C88.7031 72.3353 92.1933 68.8451 92.1933 64.5446C92.1933 60.2441 88.7031 56.7539 84.4025 56.7539C80.102 56.7539 76.6118 60.2441 76.6118 64.5446C76.6118 68.8451 80.102 72.3353 84.4025 72.3353Z" fill="#FF6700"/>
<path d="M75.7888 52.1534C75.7888 50.52 74.4617 49.1992 72.8282 49.1992C71.1948 49.1992 69.874 50.5264 69.874 52.1598V71.6653H75.7952V52.1598L75.7888 52.1534Z" fill="#FF6700"/>
<path d="M59.9459 63.1468C60.0544 62.6938 60.1948 62.2918 60.3351 61.9919C60.5967 61.4304 61.1327 60.971 61.6623 60.9646C62.1919 60.9646 62.6258 61.3411 63.0022 62.0111C63.1617 62.2982 63.3085 62.8023 63.3723 63.1341L59.9459 63.1468ZM67.1496 59.076C65.6885 57.6021 63.8317 56.7471 61.6623 56.7471C59.5184 56.7471 57.5532 57.6212 56.1558 59.0313C54.7521 60.4287 53.8716 62.4003 53.8716 64.5378C53.8716 66.6817 54.7457 68.6469 56.1558 70.0506C57.5213 71.4161 59.4546 72.3349 61.7006 72.3349C64.0104 72.3349 65.9309 71.3012 67.2198 70.006C68.8469 68.1364 68.9234 66.1393 68.9234 66.1393H63.653C63.653 66.1393 62.9193 67.9833 61.6623 67.9833C61.1327 67.9833 60.6861 67.6005 60.3351 66.956C60.099 66.5094 59.9332 65.9734 59.8502 65.3609H69.0319C69.0319 65.3609 69.6572 61.6155 67.1496 59.076Z" fill="#FF6700"/>
<path d="M45.8065 66.9824L48.9266 71.6594H53.6993C54.2672 71.6594 54.7266 71.1936 54.7266 70.6258C54.7266 70.428 54.6692 70.2429 54.5735 70.0898L51.3321 65.1895L53.5717 61.1187C54.4012 59.7149 53.9354 57.8965 52.5253 57.067C51.1152 56.2375 49.3031 56.7033 48.4736 58.1134L45.7938 62.8989V59.7086C45.7938 58.0751 44.4666 56.7543 42.8332 56.7543C41.1997 56.7543 39.8726 58.0815 39.8726 59.7086V71.6594H45.7874V66.9824H45.8065Z" fill="#FF6700"/>
<path d="M25.7076 59.0445C24.3039 60.4482 23.4233 62.4134 23.4233 64.5509C23.4233 66.6948 24.2975 68.66 25.7076 70.0638C26.7859 71.1421 28.6618 72.348 31.2141 72.348C33.1346 72.348 34.9084 71.6462 36.2611 70.4849C37.2501 69.649 38.7176 67.9582 38.9665 65.2847H33.0453C32.9687 65.961 32.7901 66.5481 32.5412 67.033C32.1903 67.6774 31.7436 68.0603 31.2141 68.0603C30.6845 68.0603 30.2378 67.6774 29.8869 67.033C29.5423 66.3822 29.3382 65.5399 29.3382 64.5573C29.3382 63.5747 29.5423 62.7325 29.8869 62.0816C30.2378 61.4372 30.6845 61.0607 31.2141 61.0544C31.7436 61.0544 32.1903 61.4372 32.5412 62.0816C32.7964 62.5666 32.9751 63.1536 33.0453 63.8299H38.9665C38.7942 61.9732 37.9647 60.2951 36.7205 59.0509C35.3168 57.6471 33.3516 56.7666 31.2141 56.7666C29.0702 56.7666 27.1049 57.6407 25.7076 59.0509" fill="#FF6700"/>
<path d="M18.0252 55.5664C19.2375 56.7787 19.3205 57.0978 18.172 58.2526L17.5148 58.9162C16.9724 59.4586 16.6406 60.2051 16.6406 61.0282V71.6647H22.6193V61.0282C22.6193 60.2051 22.2875 59.4586 21.7451 58.9162L21.0879 58.2526C19.933 57.1041 20.0224 56.7787 21.2347 55.5664L21.9621 54.839C22.5555 54.2456 22.9255 53.4225 22.9255 52.5165C22.9255 51.6104 22.5555 50.7873 21.9621 50.1939C21.3687 49.6005 20.5456 49.2305 19.6395 49.2305C18.7335 49.2305 17.9104 49.6005 17.317 50.1939C16.7236 50.7873 16.3535 51.6104 16.3535 52.5165C16.3535 53.4225 16.7236 54.2456 17.317 54.839L18.0444 55.5664H18.0252Z" fill="#FF6700"/>
<path d="M15.5814 71.6585V64.5442C15.5814 62.4003 14.7073 60.4351 13.2972 59.0313C11.8934 57.6276 9.92822 56.7471 7.79072 56.7471C5.64683 56.7471 3.68161 57.6212 2.28426 59.0313C0.874143 60.4351 0 62.4003 0 64.5442V71.6585H5.91482V68.5448V64.6654C5.91482 63.8104 6.119 63.083 6.46355 62.5215C6.81448 61.9664 7.26113 61.6346 7.79072 61.6346C8.32031 61.6346 8.76695 61.9664 9.11788 62.5215C9.46243 63.083 9.66661 63.8168 9.66661 64.6654V71.6585H15.5814Z" fill="#FF6700"/>
<path d="M27.1622 39.9474C31.3479 39.9474 34.7423 36.5529 34.7423 32.3673C34.7423 28.1816 31.3479 24.7871 27.1622 24.7871C22.9765 24.7871 19.582 28.1816 19.582 32.3673C19.582 36.5529 22.9765 39.9474 27.1622 39.9474Z" fill="#FF6700"/>
<path d="M133.061 54.9671C135.447 54.9671 137.63 55.8476 139.301 57.3024C139.754 56.0965 140.035 54.7821 140.124 53.3464C140.565 46.1108 135.607 38.671 127.376 38.4094C122.45 38.2499 120.026 39.2963 115.508 43.0162C111.935 45.9577 106.058 46.9084 101.962 46.4681C95.3199 45.7599 88.6777 39.6473 88.6585 33.1135C88.6458 29.5468 90.3622 26.5415 91.9573 24.3976C93.8332 21.8773 95.2306 18.9167 95.3773 15.535C95.741 7.32952 89.3859 0.38104 81.1868 0.0173459C75.9292 -0.212356 71.1884 2.32074 68.3682 6.34052C64.7568 10.9665 60.8965 15.8731 54.2033 16.9068C47.1144 17.7618 41.4804 23.6511 41.1549 31.0271C41.0082 34.4152 42.2397 37.446 43.8029 40.1769C46.738 45.3005 46.9294 50.7623 45.2641 55.6753C45.9787 56.1156 46.4764 56.6516 46.7252 56.9706C46.8273 57.0982 47.0187 57.0855 47.1081 56.9451C48.5245 54.8905 51.281 54.2588 53.4312 55.5286C54.1012 55.9242 54.6499 56.4602 55.0455 57.1046C55.154 57.2833 55.3965 57.3024 55.556 57.1748C57.2532 55.7647 59.429 54.9607 61.6494 54.9607H61.6622C63.8508 54.9607 65.867 55.6881 67.5643 57.0727C67.7748 57.2386 68.0811 57.0855 68.0811 56.8175V52.1533C68.0811 50.3794 69.0446 48.7524 70.7354 47.8782C71.3735 47.5465 72.1009 47.4125 72.8219 47.4125C75.4315 47.4125 77.5563 49.5372 77.5627 52.1469V57.2003C77.5627 57.4364 77.8434 57.564 78.0157 57.4109C79.7129 55.8923 81.9461 54.9607 84.3963 54.9607C87.5356 54.9607 90.3239 56.4857 92.0658 58.8337C92.3082 59.1528 92.7804 59.1528 93.0165 58.8274C93.2909 58.4573 93.5907 58.1 93.9162 57.7746C95.69 55.9944 98.1529 54.9735 100.68 54.9735C100.718 54.9735 100.75 54.9735 100.782 54.9735V52.3255C100.782 51.0941 101.184 49.8754 102.007 48.9693C102.919 47.9676 104.157 47.438 105.516 47.4125C108.126 47.4125 110.257 49.5372 110.257 52.1469V56.76C110.257 57.1365 110.691 57.3343 110.978 57.0982C112.669 55.7328 114.813 54.9607 117.001 54.9607H117.014C119.573 54.9607 121.908 55.9497 123.758 57.8192C124.045 58.1127 124.301 58.4126 124.524 58.7253C124.747 59.0379 125.207 59.0507 125.436 58.7444C127.185 56.4538 129.941 54.9671 133.036 54.9671" fill="#FF6700"/>
</svg>
