<svg width="205" height="120" viewBox="0 0 205 120" fill="none" xmlns="http://www.w3.org/2000/svg">
<path fill-rule="evenodd" clip-rule="evenodd" d="M26.2415 27.7521C47.2375 9.62328 74.8995 -0.148873 102.617 0.00171468C105.485 0.0177774 108.356 0.147283 111.218 0.377181C148.86 2.58781 184.297 24.6118 204.217 56.2001C206.867 62.6124 202.221 67.8717 197.9 72.7639C196.47 74.3821 195.076 75.9601 193.993 77.5264C171.659 104.016 137.499 120.735 102.517 119.975C100.375 119.981 98.2326 119.965 96.0922 119.85C63.4719 118.485 32.0813 102.735 11.2169 77.8256C10.1308 76.3057 8.79663 74.7968 7.43615 73.2583C3.36363 68.6528 -0.944112 63.7813 0.46688 57.5504C6.70022 45.922 16.5597 36.5916 26.2415 27.7521ZM145.618 22.6258C133.248 12.3276 117.069 7.09718 101.042 7.40137C88.5768 7.63729 76.2025 11.2273 65.8169 18.4013C52.2409 27.6283 40.235 41.9061 38.8426 58.7499C38.5274 74.661 49.0996 88.5693 60.7923 98.4499C74.9265 109.815 93.6385 115.257 111.692 112.725C136.395 109.751 159.504 91.7648 166.268 67.6506C170.295 50.1312 158.641 33.2754 145.618 22.6258Z" fill="#FFBB00"/>
<path fill-rule="evenodd" clip-rule="evenodd" d="M100.944 13.4553C118.333 12.8911 135.826 22.7597 143.544 38.5303C153.238 56.6912 149.061 81.1256 133.318 94.6544C123.942 103.486 110.447 107.701 97.6438 106.304C75.2343 104.235 56.6518 83.809 56.5182 61.4799C55.3908 40.3504 70.6113 19.771 91.3683 14.8809C94.5206 14.0326 97.7231 13.5598 100.944 13.4553Z" fill="#00821B"/>
</svg>
