<svg width="121" height="120" viewBox="0 0 121 120" fill="none" xmlns="http://www.w3.org/2000/svg">
<path fill-rule="evenodd" clip-rule="evenodd" d="M60.1224 0C27.0203 0 0.153809 26.962 0.153809 59.9662C0.153809 93.0343 27.0203 120 60.1224 120C93.291 120 120.154 93.0343 120.154 59.9662C120.154 26.962 93.291 0 60.1224 0ZM60.1233 89.9512C46.6889 89.9512 32.2271 89.6954 19.244 88.2835C15.4515 87.8973 13.4585 86.9983 13.0096 82.8881C12.3029 75.4414 12.2388 67.8016 12.2388 59.9662C12.2388 52.1985 12.3029 44.5575 13.0096 37.1095C13.4585 33.003 15.4515 32.1028 19.244 31.7178C30.604 30.4831 43.0975 30.0797 55.0433 30.0428C56.7502 30.0379 58.4448 30.0403 60.1233 30.0489C73.6207 29.9813 88.0825 30.306 101.063 31.7178C104.859 32.1028 106.847 33.003 107.301 37.1095C108.004 44.5575 108.072 52.1985 108.072 59.9662C108.072 67.8016 108.003 75.4414 107.301 82.8881C106.847 86.9983 104.859 87.8973 101.063 88.2835C88.0825 89.6954 73.6207 89.9512 60.1233 89.9512ZM35.7617 59.9656C35.7617 46.6119 46.626 35.697 60.1233 35.697C73.6848 35.697 84.5466 46.6119 84.5466 59.9656C84.5466 73.3857 73.6848 84.2367 60.1233 84.2367C46.626 84.2367 35.7617 73.3857 35.7617 59.9656Z" fill="#00AEEF"/>
</svg>
