<svg width="121" height="120" viewBox="0 0 121 120" fill="none" xmlns="http://www.w3.org/2000/svg">
<path fill-rule="evenodd" clip-rule="evenodd" d="M60.8408 120C93.9777 120 120.841 93.1369 120.841 60C120.841 26.8631 93.9777 0 60.8408 0C27.7039 0 0.84082 26.8631 0.84082 60C0.84082 93.1369 27.7039 120 60.8408 120ZM110.601 51.2618C111.12 51.2618 111.481 50.9388 111.481 50.3811V41.8995C111.481 41.2934 111.127 40.9949 110.555 40.9949H102.91V28.8288C102.91 28.3441 102.591 27.9941 102.076 27.9941H93.2261C92.673 27.9941 92.3692 28.3257 92.3692 28.8288V40.9949H86.1838C85.7799 40.9949 85.443 41.3341 85.443 41.7603V50.428C85.443 51.0026 85.8307 51.2618 86.2769 51.2618H92.3692V66.3718C92.3692 72.5703 93.6615 76.3311 96.6399 79.4041C98.8015 81.5872 102.544 84.008 109.331 84.008H110.628C111.208 84.008 111.481 83.608 111.481 83.1503V74.5757C111.481 74.0764 111.112 73.7411 110.648 73.7411C108.483 73.7411 105.949 73.4634 104.603 72.1495C102.964 70.5649 102.91 67.4911 102.91 66.0834V51.2618H110.601ZM85.6931 62.6963C85.6931 74.1001 76.3224 84.1347 63.9985 84.1347C58.7939 84.1347 52.4047 82.0524 47.8731 76.8801C44.657 73.2063 42.8131 69.3124 42.8131 60.4486V19.7963C42.8131 19.3517 43.1208 19.0078 43.6016 19.0078H52.5662C52.9631 19.0078 53.3539 19.297 53.3539 19.7955V45.0101C53.3539 45.0101 57.9439 41.2524 64.6885 41.2524C76.0731 41.2524 85.6931 51.0855 85.6931 62.6963ZM75.1316 62.7292C75.1316 56.1715 70.1347 51.5215 63.9285 51.5215C56.9162 51.5215 52.8693 57.1176 52.8693 62.3876C52.8693 68.3676 57.1416 73.8876 63.7993 73.8876C69.7747 73.8876 75.1316 69.4238 75.1316 62.7292ZM22.7308 84.1495C32.9147 84.1495 38.5354 77.8733 38.5354 70.2248C38.5354 65.0387 35.7108 60.9202 31.2808 59.1418C29.5288 58.3339 25.8764 57.353 24.29 56.9269C24.0787 56.8702 23.9041 56.8233 23.7754 56.7879C23.6986 56.7636 23.6223 56.7395 23.5468 56.7156C21.3824 56.032 19.7901 55.5291 19.7901 53.7987C19.7901 51.8587 21.387 50.0887 25.467 50.0887C29.0901 50.0495 34.3847 52.0964 34.3847 52.0964C34.3847 52.0964 35.0193 52.3718 35.3301 52.3718C35.8631 52.3718 36.1454 51.9164 36.1454 51.3079V43.2433C36.1454 42.755 35.7138 42.6081 35.2802 42.4606L35.2654 42.4556C35.2654 42.4556 30.6501 40.6895 25.007 40.6895C16.487 40.6895 9.6416 45.8579 9.6416 54.2164C9.6416 57.7102 10.777 60.4502 12.9908 62.4787C14.7962 64.1879 17.2439 65.2187 19.1878 65.9541C20.2459 66.3604 21.2745 66.6432 22.2956 66.9239C23.246 67.1852 24.1898 67.4446 25.1447 67.8002C25.9008 68.0818 26.6401 68.4195 27.2962 68.7818C27.8947 69.0848 28.3731 69.5725 28.3731 70.9748C28.3731 73.5395 25.9178 74.5479 23.0431 74.5479C18.9739 74.5579 15.5431 73.281 12.0531 71.9341C11.7778 71.8164 11.4647 71.6833 11.1024 71.6833C10.5324 71.6833 10.1078 72.0425 10.1078 72.7218V80.9725C10.1078 81.5287 10.4501 81.7125 10.8947 81.8525C15.8285 83.5556 18.5778 84.1495 22.7308 84.1495Z" fill="white"/>
</svg>
