<svg width="121" height="120" viewBox="0 0 121 120" fill="none" xmlns="http://www.w3.org/2000/svg">
<path fill-rule="evenodd" clip-rule="evenodd" d="M112.544 106.882L113.11 107.805L120.59 120H115.45L114.577 118.447H107.127L106.254 120H101.114L108.594 107.805L109.16 106.882H112.544ZM110.852 111.821L108.842 115.397H112.862L110.852 111.821ZM96.4037 106.882C100.034 106.882 102.977 109.819 102.977 113.441C102.977 117.064 100.034 120 96.4037 120H86.3289V106.882H96.4037ZM84.7357 106.882V120H80.5961V106.882H84.7357ZM65.3421 106.882L69.8408 114.427L74.3393 106.882H79.4521L72.397 118.714L71.6302 120H68.0514L67.2844 118.714L60.2295 106.882H65.3421ZM59.0906 106.882V109.023H50.082V112.14H57.7886V114.28H50.082V117.86H59.0906V120H47.2977V106.882H59.0906ZM95.9945 110.684H90.4682V116.198H95.9945V116.193L96.0995 116.198C97.6255 116.198 98.8627 114.964 98.8627 113.441C98.8627 111.918 97.6255 110.684 96.0995 110.684L95.9945 110.689V110.684ZM39.7844 106.882V106.889C39.8707 106.886 39.9569 106.882 40.0439 106.882C43.6723 106.882 46.6136 109.817 46.6136 113.438C46.6136 117.059 43.6723 119.994 40.0439 119.994C39.9569 119.994 39.8707 119.99 39.7844 119.987V120H30.2873V106.882H39.7844ZM28.9388 106.882V109.023H19.9302V112.14H27.6366V114.28H19.9302V117.86H28.9388V120H17.1459V106.882H28.9388ZM11.5311 106.882C14.2055 106.882 16.3735 108.754 16.3735 111.062C16.3735 113.048 14.7682 114.71 12.6168 115.135L16.3735 120H12.7658L9.69675 116.026H3.37443V120H0.589844V106.882H11.5311ZM39.7075 109.281H33.0717V117.587H34.9574L34.9541 117.582H39.6172C39.6476 117.583 39.6769 117.587 39.7075 117.587C42.0061 117.587 43.8692 115.727 43.8692 113.434C43.8692 111.141 42.0061 109.281 39.7075 109.281ZM11.0437 109.467H3.37443V113.441H11.0437C12.1434 113.441 13.0349 112.552 13.0349 111.454C13.0349 110.357 12.1434 109.467 11.0437 109.467ZM62.3097 52.5545L100.389 74.8418L68.2062 63.3777L62.3097 98.9707V52.5545ZM58.7062 52.5545V98.9707L52.8099 63.3777L20.6264 74.8418L58.7062 52.5545ZM20.1063 27.8571L56.4133 49.4854L20.1063 71.1138L44.2927 49.4854L20.1063 27.8571ZM101.073 27.8571L76.887 49.4854L101.073 71.1138L64.7666 49.4854L101.073 27.8571ZM58.7062 0V46.4164L20.6264 24.1292L52.8099 35.593L58.7062 0ZM62.3097 0L68.2062 35.593L100.389 24.1292L62.3097 46.4164V0Z" fill="black"/>
</svg>
