<svg width="456" height="120" viewBox="0 0 456 120" fill="none" xmlns="http://www.w3.org/2000/svg">
<path d="M348.296 19.0656C348.296 27.4543 341.516 34.2536 333.134 34.2536C324.75 34.2536 317.959 27.4543 317.959 19.0656C317.959 10.6769 324.75 3.88867 333.134 3.88867C341.516 3.88867 348.296 10.6769 348.296 19.0656Z" fill="#27BBC9"/>
<path d="M455.362 43.841L450.411 49.4261L445.412 43.841H445.102V54.3236H446.978V47.8345L450.239 51.6784H450.58L453.805 47.8345V54.3236H455.681V43.841H455.362Z" fill="#27BBC9"/>
<path d="M434.778 45.6134H437.889V54.3236H439.763V45.6134H442.885V44.0107H434.778V45.6134Z" fill="#27BBC9"/>
<path d="M397.608 102.124C397.608 93.7357 404.413 86.9498 412.784 86.9498C421.166 86.9498 427.948 93.7357 427.948 102.124C427.948 110.515 421.166 117.313 412.784 117.313C404.413 117.313 397.608 110.515 397.608 102.124Z" fill="#27BBC9"/>
<path d="M414.426 39.7248C422.74 41.2695 428.241 49.2698 426.697 57.5916C425.165 65.9111 415.262 72.3309 402.544 67.4781C402.12 67.3198 401.703 67.16 401.294 67.0027C397.97 65.7273 395.081 64.6185 391.945 65.8307C388.493 67.17 386.628 72.1948 386.628 75.1815V116.475H355.991V54.3972C355.991 45.9393 362.852 39.073 371.314 39.073C378.153 39.073 383.952 43.5709 385.919 49.7743C386.097 49.6256 386.384 49.38 386.71 49.1005C387.389 48.5199 388.238 47.7929 388.64 47.484C388.651 47.484 388.651 47.4729 388.662 47.4729C397.011 41.0307 404.215 37.814 414.426 39.7248Z" fill="#27BBC9"/>
<path d="M348.41 88.5592L348.455 54.4062C348.455 45.9371 341.594 39.0819 333.132 39.0708C324.67 39.0708 317.798 45.9259 317.798 57.0625L317.787 94.3385C317.787 99.3967 314.883 100.107 313.922 94.6242C311.176 78.9562 292.628 80.6147 287.335 89.6218C281.617 99.3275 287.277 108.518 295.956 114.114C300.954 117.33 308.959 119.357 316.598 119.357H317.443C339.308 119.357 348.41 107.272 348.41 88.5592Z" fill="#27BBC9"/>
<path fill-rule="evenodd" clip-rule="evenodd" d="M283.161 108.295L266.362 82.8637L277.994 61.7268C282.292 54.4229 279.867 45.0163 272.572 40.7126C265.276 36.4089 255.877 38.8353 251.566 46.1369L237.681 70.9838V54.4229C237.681 45.9427 230.81 39.0652 222.336 39.0652C213.874 39.0652 207.002 45.9427 207.002 54.4229V116.454H237.681V92.1699L253.863 116.443L278.634 116.432C281.582 116.432 283.973 114.041 283.973 111.088C283.973 110.059 283.666 109.108 283.161 108.295ZM162.588 61.3674C165.323 61.3763 167.654 63.3585 169.471 66.689C170.799 69.2069 171.713 72.2517 172.103 75.7518H202.818C201.915 66.1265 197.615 57.394 191.164 50.9518C183.893 43.6614 173.691 39.1054 162.588 39.1054C151.483 39.1054 141.284 43.6614 134.01 50.9518C126.726 58.2311 122.162 68.4391 122.176 79.5533C122.162 90.6765 126.726 100.887 134.01 108.153C139.615 113.749 149.358 120.01 162.588 119.999C172.536 120.01 181.743 116.347 188.776 110.349C193.91 105.99 201.516 97.2459 202.818 83.3526H172.103C171.713 86.8549 170.799 89.9108 169.471 92.4154C167.654 95.7593 165.323 97.7393 162.588 97.7393C159.854 97.7393 157.521 95.7593 155.703 92.4154C153.921 89.0403 152.868 84.6696 152.857 79.5533C152.868 74.4482 153.921 70.0753 155.703 66.689C157.521 63.3585 159.854 61.3763 162.588 61.3674ZM114.517 29.1273C117.604 26.0379 119.513 21.7677 119.513 17.0532C119.513 12.3388 117.604 8.07968 114.517 4.99028C111.43 1.89865 107.163 -0.000976562 102.452 -0.000976562C97.753 -0.000976562 93.4862 1.89865 90.3994 4.99028C87.3125 8.07968 85.4011 12.3388 85.4011 17.0532C85.4011 21.7677 87.3125 26.0379 90.3994 29.1273L94.1621 32.9043C100.452 39.188 100.898 40.8577 94.9159 46.8445L91.4967 50.2665C88.6842 53.0813 86.9579 56.9609 86.9579 61.2424V116.452H117.958V61.2424C117.958 56.9609 116.221 53.0813 113.419 50.2665L110 46.8445C104.018 40.8577 104.464 39.188 110.754 32.8931L114.517 29.1273ZM69.6723 50.9139C76.9545 58.182 81.5068 68.39 81.5068 79.5131V116.459H50.8254V80.1449C50.8143 75.7139 49.7615 71.937 47.9795 69.0083C46.1728 66.1131 43.8265 64.4077 41.0942 64.3965C38.362 64.4077 36.0156 66.1131 34.209 69.0083C32.4269 71.937 31.3741 75.7139 31.363 80.1449V116.459H0.681641V79.5131C0.681641 68.39 5.23165 58.182 12.5161 50.9139C19.7895 43.6234 29.9779 39.0563 41.0942 39.0674C52.2105 39.0563 62.399 43.6234 69.6723 50.9139Z" fill="#FD6821"/>
</svg>
