<svg width="541" height="120" viewBox="0 0 541 120" fill="none" xmlns="http://www.w3.org/2000/svg">
<path d="M329.896 112.416C329.909 116.476 326.664 119.791 322.619 119.838C294.58 120.162 266.033 119.87 238.129 120C231.456 119.929 224.788 119.838 218.115 119.791C214.062 119.764 210.798 116.448 210.806 112.381C210.857 77.4253 210.822 42.3737 210.751 7.41426C210.743 3.31897 214.05 -0.00388848 218.131 3.41529e-06C252.799 0.0236415 287.769 0.149881 322.428 0.0236404C326.481 0.00889221 329.788 3.27952 329.828 7.35125C329.875 12.093 329.902 17.1148 329.871 21.0642C329.521 47.7892 329.828 86.2636 329.897 112.415" fill="#2ECCF2"/>
<path d="M262.672 55.951C262.181 49.2975 259.008 42.8688 253.023 39.3882C246.464 35.5766 236.253 35.3242 229.647 39.0452C221.989 43.3536 217.92 51.9659 218.812 60.4875C219.64 68.4378 223.521 76.0413 231.709 78.5916C239.175 80.9212 249.018 80.7989 255.654 76.3408C262.452 71.7765 263.222 63.3767 262.672 55.9506" fill="white"/>
<path d="M298.329 36.5914C291.609 36.7688 284.995 39.6107 281.221 45.3734C277.085 51.6918 276.371 61.7824 279.815 68.4994C283.805 76.2762 292.284 80.7066 300.904 80.2179C308.944 79.7685 316.771 76.2801 319.713 68.2944C322.391 61.0102 322.717 51.2624 318.531 44.4821C314.246 37.5447 305.825 36.3899 298.328 36.591" fill="white"/>
<path d="M243.427 45.1819C242.963 45.0873 242.508 45.0281 242.06 44.9927C237.622 44.5315 233.168 45.5405 230.58 49.5335C228.141 53.3057 227.835 59.0131 229.229 63.1717C230.835 67.9688 234.932 71.3586 240.139 71.5714C244.605 71.7526 249.903 70.3022 252.244 66.2936C254.259 62.8526 254.345 57.3855 253.269 53.637C252 49.2184 247.896 46.1162 243.427 45.1821" fill="black"/>
<path d="M311.512 50.444C309.117 46.7782 304.651 45.3001 300.48 45.0242C299.699 44.9731 298.921 44.9613 298.135 45.0269C294.188 45.3619 290.461 47.2539 288.564 50.9985C285.721 56.6192 286.51 64.8573 291.718 68.6927C296.663 72.3269 305.456 73.4424 310.094 68.6297C314.387 64.1796 314.858 55.5632 311.512 50.4429" fill="black"/>
<path d="M270.693 85.5667H270.657C270.5 85.5667 270.339 85.5667 270.182 85.564C270.033 85.5552 269.88 85.5493 269.731 85.5404C269.722 85.5404 269.71 85.5404 269.703 85.5377C269.464 85.5259 269.224 85.5061 268.988 85.4786C268.843 85.4639 268.706 85.4432 268.564 85.4274C268.505 85.4156 268.442 85.4067 268.38 85.4008C264.711 84.8569 262.807 83.1659 262.811 83.1659C262.335 82.7954 261.927 82.4012 261.613 81.9834C260.851 80.9704 260.674 79.5514 261.196 78.7158C261.656 77.9866 262.528 77.6043 263.463 77.7974C263.463 77.7974 263.537 77.8093 263.667 77.8527C263.675 77.8554 263.687 77.8554 263.698 77.8615C263.804 77.897 263.942 77.9561 264.111 78.0427C264.154 78.0664 264.197 78.0862 264.236 78.1098C264.433 78.2163 264.66 78.3662 264.912 78.5513C264.912 78.5513 264.939 78.575 264.99 78.6184C265.026 78.645 265.057 78.6657 265.092 78.6932C265.092 78.6932 265.14 78.7326 265.21 78.7917C265.583 79.0793 266.259 79.5721 266.993 79.9544C267.979 80.4353 269.22 80.8374 270.607 80.8137H270.736C272.123 80.8373 273.364 80.4353 274.345 79.9544C275.084 79.5721 275.759 79.0794 276.132 78.7917C276.203 78.7325 276.25 78.6932 276.25 78.6971C276.285 78.6654 276.317 78.6459 276.352 78.6181C276.403 78.5747 276.431 78.551 276.423 78.5629C276.678 78.3657 276.906 78.216 277.102 78.1096C277.145 78.0859 277.189 78.0661 277.228 78.0424C277.401 77.9558 277.538 77.8967 277.644 77.8612C277.656 77.8586 277.665 77.8586 277.676 77.8524C277.801 77.809 277.88 77.7971 277.88 77.809C278.815 77.6041 279.687 77.9863 280.146 78.7156C280.668 79.5512 280.492 80.9702 279.73 81.9831C279.416 82.4009 279.007 82.7951 278.536 83.1656C278.536 83.1656 276.631 84.8565 272.959 85.4005C272.9 85.4094 272.837 85.4153 272.774 85.4271C272.637 85.4419 272.499 85.4626 272.354 85.4783C272.118 85.5049 271.879 85.5256 271.639 85.5374C271.631 85.5401 271.619 85.5401 271.612 85.5401C271.451 85.552 271.294 85.5548 271.133 85.5637C270.987 85.5664 270.838 85.5664 270.693 85.5664" fill="#ED1C99"/>
<path d="M140.296 61.7722C145.763 59.0328 148.689 50.7316 146.211 44.8427C144.122 39.8802 139.22 37.5665 134.189 36.723C129.268 35.8992 123.506 35.7455 118.581 36.6559C115.993 37.1368 113.452 38.2759 112.227 40.7553C110.412 44.4288 110.699 49.3679 110.534 53.3685C110.53 53.4474 110.526 53.5261 110.522 53.605C110.306 58.5045 110.726 63.0492 110.879 67.9567C110.993 71.6775 111.48 76.719 114.524 79.151C116.916 81.0666 120.25 81.4529 122.748 79.5057C125.277 77.527 125.709 73.1874 125.76 70.1246C125.772 69.5255 125.777 68.9224 125.784 68.3194C128.23 71.2874 130.363 74.5787 133.234 77.1212C133.87 77.6848 134.538 78.1972 135.206 78.7136C138.398 81.1733 143.3 81.323 145.766 77.4956C148.547 73.1834 143.19 64.6143 140.295 61.7724L140.296 61.7722ZM124.978 56.7467C125.065 52.1586 124.966 48.6583 124.915 47.3144C125.367 47.216 126.718 47.1687 126.903 47.1645C128.831 47.1498 131.113 47.1134 132.527 48.6466C133.328 49.5177 133.666 50.649 133.717 51.8117C133.764 53.7392 132.299 55.6983 130.339 56.246C128.537 56.7545 127.072 56.7545 125.206 56.7505C125.194 56.7505 124.978 56.7479 124.978 56.7479" fill="black"/>
<path d="M537.019 46.2264C529.612 35.3002 515.39 33.3843 504.653 39.5255C495.278 44.8861 491.449 59.2535 496.688 69.4501C500.313 76.5057 508.698 80.6483 515.976 80.7548C520.469 80.8258 525.024 80.0847 529.223 77.7591C540.031 71.7756 543.44 56.493 537.019 46.2266V46.2264ZM511.158 61.7331C508.381 54.7879 515.588 48.903 521.679 53.4319C524.739 55.8205 524.813 61.3783 521.73 63.9324C518.631 66.4984 512.893 65.45 511.158 61.7329" fill="black"/>
<path d="M471.368 36.2587C464.42 35.9947 458.926 35.9669 451.979 36.298C446.476 36.5543 441.979 39.5459 443.405 45.6121C444.403 49.8416 450.266 50.48 454.669 50.6023C454.618 55.155 454.465 61.3671 454.648 65.9157C454.762 68.7064 454.711 71.4971 455.351 74.2523C456.113 77.516 457.692 80.2713 461.922 80.7166C466.003 81.1383 468.622 79.1399 469.894 75.9629C472 70.7048 471.112 63.0619 471.194 57.5395C471.221 55.5884 471.261 52.5257 471.289 50.5706C476.174 50.5558 482.05 49.4078 482.533 44.7252C483.307 37.2163 476.783 36.4635 471.367 36.2585" fill="black"/>
<path d="M367.165 71.045C368.273 72.4206 369.459 73.741 370.668 75.026C371.945 76.3819 373.563 77.6315 375.216 78.5262C376.917 79.4446 378.932 80.0082 380.884 79.9728C386.547 79.882 388.279 74.7619 388.597 70.1423C388.856 66.3661 388.805 62.0264 388.762 58.2542C388.73 55.365 388.703 52.7082 388.719 49.9452C388.731 47.245 388.84 44.4388 388.122 41.8056C387.47 39.4051 385.486 36.9061 382.993 36.24C380.526 35.5738 377.718 36.0035 375.758 37.4146C372.278 39.9136 371.89 45.4122 371.897 49.8584C368.889 46.0114 366.218 43.1064 364.443 41.3169C361.686 38.542 358.387 35.8222 353.988 36.043C350.658 36.2086 348.4 38.1754 347.378 41.2223C346.027 45.2586 346.31 52.0776 346.33 57.7575C346.338 61.4194 346.094 65.0929 346.35 68.7509C346.563 71.841 346.987 75.3255 348.942 77.8286C350.824 80.2369 352.893 81.0568 356.024 80.8676C358.156 80.7413 359.99 79.7363 361.184 78.0218C363.56 74.6162 363.56 69.8625 363.34 65.9209C363.34 65.9209 365.646 69.1569 367.165 71.045" fill="black"/>
<path d="M197.566 40.8854C196.906 39.6832 195.913 38.6426 194.668 37.9331C191.62 36.1988 187.869 36.1633 184.453 36.1514C179.366 36.1278 174.787 35.9386 169.709 36.1278C168.554 36.1713 166.818 36.3681 165.577 36.8018C161.862 38.0907 159.863 41.6855 161.057 45.8951C162.015 49.2731 165.593 50.2743 168.782 50.8104C169.591 50.9484 171.15 51.0271 171.971 51.0625C172.046 57.1918 171.653 65.753 172.317 71.8473C172.847 76.6955 174.956 81.0116 180.992 80.7712C182.665 80.7041 184.111 79.7109 185.093 78.3865C187.017 75.7928 187.052 72.541 187.206 69.4507C187.269 68.142 187.571 51.1258 187.595 51.1258C189.539 51.1258 190.721 51.0392 192.374 50.7395C194.35 50.3808 196.294 49.7541 197.401 47.9923C198.803 45.7692 198.733 43.0139 197.566 40.8855" fill="black"/>
<path d="M27.2881 64.0636C26.428 64.442 25.5797 64.8756 24.6567 65.1436C22.6145 65.7427 20.6154 65.4194 18.9973 63.9966C17.4774 62.6525 16.6604 60.1573 16.6959 58.4467C16.7431 55.9832 17.7917 53.4172 19.9517 52.0927C20.9728 51.47 22.1629 51.194 23.3527 51.2571C24.9473 51.3479 26.1058 52.144 27.5473 52.6919C30.2022 53.7009 33.678 53.4762 35.681 52.1046C37.9509 50.5476 39.0076 48.8014 38.8504 45.5338C38.7208 42.9205 37.142 40.6579 35.1979 39.239C33.1047 37.7057 30.4967 36.5903 27.9635 36.1882C26.7578 35.9951 25.5364 35.8925 24.3148 35.8847C17.2572 35.8374 10.2036 38.4072 5.57711 43.9335C0.0591524 50.528 -1.46869 61.131 2.41955 68.8969C4.98811 74.0289 9.72847 78.1047 15.2072 79.7799C19.6649 81.1476 24.48 81.3132 29.0201 80.2568C32.7904 79.3778 36.5451 77.5804 38.2063 73.8358C38.9721 72.1133 39.2902 70.0992 38.819 68.2583C37.6879 63.824 33.2892 62.874 29.9706 63.3312C29.0044 63.4612 28.1364 63.6938 27.2881 64.0643" fill="black"/>
<path d="M85.0886 45.198C83.2899 41.4257 80.5722 35.7223 75.1169 35.5056C74.5867 35.4848 74.1625 35.5029 74.1036 35.5056C69.2494 35.6673 66.6414 40.066 64.7721 43.8698C64.3087 44.8119 63.8217 45.7421 63.3189 46.6683C61.3945 50.2079 59.6783 53.854 58.0759 57.5552C56.2772 61.7176 54.3881 65.9627 52.9625 70.2749C52.5619 71.4849 52.393 72.762 52.4676 74.0391C52.6248 76.6643 53.3434 78.777 55.6409 80.1369C57.4554 81.213 59.7333 81.6032 61.7834 81.075C65.1257 80.2157 66.7634 77.2358 67.8669 73.5858C69.5754 73.5858 72.5681 73.5977 74.2805 73.6175H74.9442C76.633 73.5967 79.6258 73.5908 81.3381 73.5858C81.4677 73.9918 81.617 74.3899 81.7819 74.7762C82.8738 77.8743 84.4644 80.3102 87.4375 81.0749C88.1012 81.2484 88.7649 81.3312 89.4169 81.3312H89.5269C91.4396 81.3046 93.2423 80.5113 94.6836 79.2736C94.7346 79.2302 94.7857 79.1829 94.8369 79.1397C95.5399 78.513 96.074 77.7916 96.4039 76.9047C96.722 76.0533 96.8556 75.131 96.9223 74.2322C97.0676 72.3205 96.6749 70.5153 95.697 68.3946L93.1794 62.565C90.6462 56.6999 87.9481 50.9096 85.0891 45.1981L85.0886 45.198ZM74.6108 61.8476C72.7413 61.8269 72.5135 61.8476 69.8663 61.7923C71.0053 58.5996 73.4756 52.9827 74.6028 50.929H74.6191C76.0369 53.6132 78.3188 59.171 79.3517 61.7923C76.7086 61.8476 76.4807 61.8278 74.6113 61.8476" fill="black"/>
<path d="M423.404 39.1183C422.052 37.313 419.751 35.9452 417.072 36.0478C414.472 36.1504 412.383 37.2105 410.765 39.1498C408.424 41.9563 408.204 46.1227 407.969 49.5479C407.69 53.5842 407.819 57.6756 407.8 61.7158C407.786 65.6182 407.552 69.67 408.401 73.5171C409.559 78.7752 415.678 82.9178 421.228 79.4651C427.107 75.8112 426.176 67.9633 426.341 62.1691C426.455 58.1644 426.354 54.5697 426.354 50.7739C426.271 47.4275 425.835 42.3625 423.404 39.1185" fill="black"/>
</svg>
