<svg width="207" height="120" viewBox="0 0 207 120" fill="none" xmlns="http://www.w3.org/2000/svg">
<path d="M15.7572 48.4023H6.80546C3.25054 48.4023 3.00188 53.6346 3.00188 53.6346L0.533691 71.7021H5.83845L7.2199 62.5895H10.9728L14.0857 71.7021H20.8502L17.1111 62.5895C17.1111 62.5895 22.3283 62.5895 22.3283 53.6346C22.3145 51.832 22.5908 48.4023 15.7572 48.4023ZM13.5285 57.934H8.31124L8.77172 53.6346H14.7165C14.7165 53.6346 16.1579 53.6346 16.098 55.3382C15.9737 58.0783 13.5285 57.934 13.5285 57.934ZM31.6024 48.4023C28.0475 48.4023 27.7989 53.6346 27.7989 53.6346L25.3307 71.7021H42.5251L43.2388 66.979H31.3123L32.0077 62.5895H41.9771L42.5343 57.934H32.7905L33.6562 53.6346H44.9104L45.6241 48.4023H31.6024ZM79.5709 48.4023C76.016 48.4023 75.7673 53.6346 75.7673 53.6346L73.2899 71.7021H90.4843L91.1981 66.979H79.2762L79.9715 62.5895H89.9225L90.4843 57.934H80.7589L81.6246 53.6346H92.8788L93.5926 48.4023H79.5709ZM100.873 48.4023C97.3225 48.4023 97.0692 53.6346 97.0692 53.6346H103.682L101.379 71.7021H107.693L109.59 57.934L110.05 53.6346H116.829L117.538 48.4023H100.873ZM56.6112 48.4023H53.0793C52.6833 48.4023 51.638 48.5871 51.44 49.52C50.2658 55.0092 47.9634 71.7021 47.9634 71.7021H54.4101C62.8231 71.7021 64.7986 72.4547 67.5155 68.1823C69.187 65.5504 70.2783 57.9881 69.7258 53.6391C69.0719 48.4023 65.3972 48.4023 56.6112 48.4023ZM61.0641 66.979H54.2812C54.2036 66.9796 54.1268 66.964 54.056 66.9332C53.9851 66.9023 53.9218 66.857 53.8703 66.8002C53.8189 66.7434 53.7804 66.6765 53.7575 66.604C53.7347 66.5314 53.728 66.4549 53.7378 66.3796L55.6396 54.5585C55.6753 54.3077 55.8028 54.078 55.9985 53.9123C56.1941 53.7465 56.4446 53.6558 56.7033 53.6572H63.408C66.553 53.6346 65.0012 67.1548 61.0641 66.979ZM143.177 48.4023H138.457C138.199 48.4048 137.946 48.4783 137.727 48.6145C137.509 48.7508 137.335 48.9443 137.223 49.173L131.108 62.1974C131.049 62.3211 130.956 62.4259 130.838 62.4993C130.721 62.5727 130.584 62.6119 130.445 62.612H129.819C129.692 62.6125 129.57 62.5665 129.476 62.4831C129.382 62.3997 129.324 62.2849 129.312 62.1613L127.71 49.1279C127.686 48.9303 127.589 48.7482 127.437 48.6161C127.285 48.484 127.089 48.4111 126.885 48.4114H121.668C121.611 48.4121 121.554 48.4248 121.502 48.4486C121.45 48.4724 121.404 48.5067 121.366 48.5493C121.329 48.5919 121.301 48.6419 121.285 48.6958C121.269 48.7497 121.264 48.8064 121.272 48.862L125.103 70.8323C125.146 71.0739 125.274 71.2931 125.465 71.4514C125.656 71.6096 125.898 71.6968 126.149 71.6976H131.914C132.121 71.6978 132.323 71.6402 132.498 71.5316C132.672 71.4231 132.812 71.268 132.899 71.0846L143.523 48.9296C143.549 48.8729 143.56 48.8107 143.555 48.7487C143.55 48.6867 143.53 48.6269 143.496 48.5745C143.462 48.5222 143.414 48.479 143.359 48.449C143.303 48.4189 143.241 48.4029 143.177 48.4023Z" fill="url(#paint0_linear_2504_13627)"/>
<path d="M146.654 119.999C158.884 119.999 168.798 110.296 168.798 98.3261C168.798 86.3565 158.884 76.6533 146.654 76.6533C134.424 76.6533 124.509 86.3565 124.509 98.3261C124.509 110.296 134.424 119.999 146.654 119.999Z" fill="#00EABD"/>
<path d="M200.765 39.3841C203.227 36.3964 204.927 32.8786 205.725 29.1211C206.523 25.3636 206.396 21.4742 205.355 17.774C204.315 14.0739 202.389 10.6691 199.739 7.84079C197.088 5.01253 193.788 2.84191 190.111 1.50816C186.434 0.174415 182.486 -0.284195 178.592 0.170199C174.698 0.624592 170.97 1.97895 167.717 4.12145C164.463 6.26395 161.777 9.13313 159.88 12.4921C157.984 15.851 156.93 19.6034 156.808 23.4394V69.9981C156.808 70.4337 156.924 70.8616 157.147 71.2389C157.369 71.6162 157.689 71.9297 158.074 72.1478C158.728 72.3957 160.234 72.5985 160.768 72.1478C160.768 72.1478 198.744 41.8402 200.77 39.3841H200.765Z" fill="url(#paint1_linear_2504_13627)"/>
<defs>
<linearGradient id="paint0_linear_2504_13627" x1="0.533691" y1="60.0747" x2="143.56" y2="60.0747" gradientUnits="userSpaceOnUse">
<stop stop-color="#0084D6"/>
<stop offset="1" stop-color="#00EABD"/>
</linearGradient>
<linearGradient id="paint1_linear_2504_13627" x1="17938" y1="627.84" x2="22365.2" y2="8931.71" gradientUnits="userSpaceOnUse">
<stop stop-color="#0084D6"/>
<stop offset="1" stop-color="#00EABD"/>
</linearGradient>
</defs>
</svg>
