<svg width="94" height="120" viewBox="0 0 94 120" fill="none" xmlns="http://www.w3.org/2000/svg">
<g clip-path="url(#clip0_2509_12800)">
<path d="M47.6958 31.8658C50.6314 31.8406 53.6662 32.6528 56.5072 34.2363C58.6211 35.4144 60.4116 36.9956 61.9699 38.8779C64.0709 41.4259 65.3548 44.3687 66.0225 47.6006C66.1913 48.507 66.285 49.4264 66.3026 50.349C66.333 51.1168 66.4088 51.887 66.3878 52.656C66.2816 56.6653 65.1366 60.2919 62.6714 63.453C60.8558 65.7855 58.5346 67.6495 55.8933 68.8958C54.092 69.765 52.1684 70.3363 50.1937 70.5886C49.0498 70.7325 47.9059 70.8801 46.7562 70.8105C44.242 70.6593 41.8013 70.1783 39.4611 69.1538C36.8315 68.0014 34.4876 66.2565 32.6024 64.048C31.2811 62.5331 30.2481 60.7768 29.5571 58.8703C28.9499 57.1369 28.5825 55.3245 28.4658 53.4862C28.3745 52.0683 28.4023 50.6451 28.5486 49.2321C28.7885 46.7499 29.5121 44.3427 30.6765 42.1541C31.8854 39.8515 33.5278 37.8189 35.5079 36.1746C37.4881 34.5303 39.7667 33.307 42.211 32.576C43.2246 32.2698 44.2656 32.0688 45.3182 31.9762C46.0139 31.9126 46.7014 31.9006 47.6958 31.8658Z" fill="#F53319"/>
<path d="M4.21554 72.7207C11.0193 82.3312 20.0466 88.759 30.9556 92.3616C41.903 95.9774 52.9356 95.9714 63.8842 92.346C74.7733 88.7398 83.7516 82.2784 90.6044 72.7735C89.9557 74.3946 89.2152 75.9753 88.3866 77.5074C87.5659 79.0474 86.657 80.536 85.6647 81.9653C84.7122 83.3473 83.6804 84.6693 82.6205 85.971C81.2199 87.6985 79.8017 89.4164 78.2037 90.9556C75.8915 93.1846 73.3983 95.176 70.6459 96.8087C67.3112 98.7882 63.7255 100.123 59.988 100.988C57.7854 101.498 55.5525 101.911 53.3138 102.241C50.3735 102.673 47.4251 102.641 44.4837 102.541C42.1493 102.46 39.823 102.052 37.5224 101.527C35.2486 101.008 33.0647 100.235 30.8575 99.4984C29.0076 98.8904 27.2027 98.1463 25.4567 97.2718C23.493 96.2932 21.64 95.0955 19.9311 93.7004C18.1845 92.2787 16.5341 90.7363 14.9914 89.0841C12.6569 86.5528 10.41 83.9628 8.52261 81.0464C6.84676 78.4427 5.38872 75.6976 4.16418 72.8407C4.15835 72.8275 4.17819 72.8047 4.21554 72.7207Z" fill="#1B50A9"/>
<path d="M90.6347 29.7723C83.7656 20.2638 74.7604 13.8276 63.855 10.2178C52.8912 6.59238 41.8481 6.59838 30.8762 10.2454C19.9918 13.8623 11.0473 20.3405 4.19217 29.8191C4.63922 28.4347 5.3057 27.1678 5.96402 25.9058C7.32617 23.2965 8.86925 20.8036 10.6925 18.4991C11.9671 16.8879 13.2417 15.2803 14.6027 13.7388C16.6278 11.4438 18.8969 9.46197 21.3317 7.64808C23.2219 6.24721 25.25 5.05421 27.3826 4.08869C29.8678 2.96825 32.4593 2.11552 35.1155 1.54419C37.0286 1.12311 38.9487 0.744019 40.8723 0.379321C41.7314 0.217366 42.6231 0.225772 43.4904 0.117802C45.0136 -0.0693452 46.5404 0.0338259 48.0648 -0.00216402C50.5965 -0.0537496 53.0897 0.253361 55.5817 0.699636C57.9073 1.12489 60.1981 1.73086 62.4345 2.51233C65.2557 3.48525 68.0489 4.53496 70.6576 6.02375C72.4186 7.03554 74.0847 8.21262 75.6347 9.53995C77.1793 10.847 78.6475 12.2467 80.0316 13.7316C82.2797 16.1525 84.4017 18.673 86.2273 21.4646C87.7727 23.8304 89.059 26.3281 90.281 28.8713C90.4188 29.1725 90.518 29.4736 90.6347 29.7723Z" fill="#1B50A9"/>
<path d="M82.6916 35.6727C82.0742 35.032 81.5944 34.2799 80.9922 33.6332C80.1646 32.7371 79.4176 31.7738 78.5095 30.9436C77.4963 30.0163 76.4808 29.1009 75.4 28.2587C74.0172 27.1911 72.5666 26.2196 71.0579 25.3508C68.1218 23.6478 65.0072 22.2927 61.7738 21.3115C59.7942 20.7044 57.7779 20.2315 55.738 19.8959C53.9312 19.5984 52.1196 19.416 50.2917 19.2757C48.7101 19.1678 47.124 19.1449 45.54 19.2073C43.9245 19.2577 42.3102 19.428 40.6995 19.6416C38.4574 19.9369 36.2376 20.3894 34.0556 20.996C31.9248 21.5872 29.8395 22.3399 27.8168 23.2478C25.1138 24.4542 22.538 25.9415 20.1294 27.6865C18.9208 28.5697 17.7662 29.5285 16.6721 30.5573C15.3531 31.793 14.1719 33.1558 13.021 34.551C12.714 34.9229 12.6603 35.5107 12.1199 35.6811C16.8448 23.0438 30.764 10.4017 49.5202 11.4167C58.1332 11.8833 65.7738 15.1044 72.3232 20.9132C76.9104 24.9825 80.405 29.8915 82.6916 35.6727Z" fill="#16A843"/>
<path d="M12.1258 66.9082C12.7152 67.5584 13.2008 68.307 13.8031 68.9596C14.5898 69.8126 15.2691 70.7591 16.1667 71.5185C16.8881 72.1279 17.5522 72.8129 18.2747 73.438C19.7798 74.7307 21.3912 75.8867 23.0907 76.893C25.3426 78.2347 27.702 79.3761 30.1431 80.3048C32.9059 81.3441 35.752 82.1329 38.6487 82.6622C40.0073 82.9129 41.3928 83.0617 42.776 83.1972C44.7722 83.3796 46.7767 83.4465 48.7802 83.3976C50.5556 83.3664 52.3192 83.1576 54.0841 82.9477C57.2361 82.5424 60.3405 81.813 63.3507 80.7703C65.1568 80.144 66.9228 79.4015 68.6382 78.5473C71.0806 77.3598 73.3987 75.9191 75.5564 74.2477C77.0645 73.0721 78.5422 71.8292 79.8051 70.368C80.6712 69.3675 81.64 68.4354 82.2376 67.2129C82.3392 67.0066 82.5201 66.9982 82.7045 66.9322C80.5997 72.2504 77.3553 77.0124 73.2126 80.8639C67.7862 85.9553 61.4505 89.2615 54.1985 90.5812C45.3684 92.1803 36.976 90.7803 29.0844 86.3931C21.397 82.1235 15.0707 74.7012 12.1258 66.9082Z" fill="#16A843"/>
<path d="M76.4155 61.5784C75.1561 64.4828 73.6959 67.1724 71.7548 69.5874C69.3853 72.5337 66.5769 74.9067 63.3741 76.8165C60.7238 78.3754 57.8685 79.533 54.8965 80.2536C53.6276 80.557 52.341 80.7762 51.0447 80.9098C49.553 81.088 48.0509 81.1577 46.5497 81.1185C44.4622 81.0427 42.3853 80.777 40.3435 80.3244C37.5218 79.7047 34.7983 78.6822 32.2523 77.2868C30.3703 76.2629 28.6008 75.0342 26.9741 73.6218C26.1372 72.902 25.2898 72.1822 24.5498 71.3521C22.8316 69.4326 21.2745 67.386 20.0524 65.0778C19.4688 63.9645 18.9774 62.8129 18.444 61.5664C18.9798 61.9095 19.2354 62.3858 19.5599 62.7781C20.8321 64.3172 22.2888 65.6333 23.8646 66.8305C25.7322 68.2473 27.7526 69.3726 29.8571 70.3515C32.2288 71.4468 34.7045 72.2866 37.2445 72.8576C38.9015 73.2498 40.5804 73.5363 42.2718 73.7154C43.3596 73.8222 44.4463 73.8882 45.54 73.9649C46.267 74.0362 46.9973 74.065 47.7274 74.0513C50.1646 73.9385 52.5947 73.785 55.0121 73.3663C57.637 72.9191 60.2162 72.224 62.7169 71.2897C64.9652 70.4365 67.1236 69.3513 69.1588 68.0506C71.2508 66.7166 73.1659 65.1097 74.8561 63.2699C75.2182 62.869 75.5569 62.4464 75.8704 62.0043C75.9836 61.8387 76.1073 61.6432 76.4155 61.5784Z" fill="#AED329"/>
<path d="M76.2801 41.0701C75.5142 40.0714 74.6877 39.1234 73.8056 38.2317C71.9228 36.3458 69.7915 34.8247 67.4932 33.5194C65.1716 32.1998 62.7216 31.2305 60.1957 30.4363C58.327 29.8506 56.4183 29.4095 54.4856 29.1167C52.8223 28.8635 51.1567 28.704 49.477 28.6116C48.5328 28.5612 47.5885 28.4916 46.65 28.5372C44.5917 28.6148 42.5385 28.801 40.4987 29.0951C37.639 29.5267 34.8299 30.2592 32.1157 31.2809C29.0027 32.4553 26.0905 34.0113 23.4327 36.0711C22.1488 37.0644 21.0096 38.1957 19.9007 39.3726C19.5867 39.7073 19.3451 40.1128 19.0451 40.4619C18.8735 40.6622 18.7276 40.9142 18.3705 41.0113C18.8619 39.9472 19.2832 38.9131 19.8061 37.9354C20.6152 36.383 21.5632 34.9115 22.6378 33.5398C23.6603 32.2658 24.7015 31.0205 25.9061 29.9156C27.2748 28.6557 28.738 27.5084 30.282 26.4846C32.7784 24.8477 35.4956 23.5974 38.3464 22.774C39.8285 22.3365 41.3398 22.0109 42.8682 21.7999C44.6797 21.5492 46.4936 21.3812 48.3168 21.4652C50.3844 21.5494 52.4412 21.8155 54.4646 22.2606C57.2657 22.8857 59.9701 23.9029 62.5021 25.2837C64.3523 26.2817 66.0966 27.4746 67.7068 28.8431C68.6184 29.5999 69.4834 30.414 70.2969 31.2809C71.8835 33.0073 73.2769 34.9111 74.451 36.9565C75.1365 38.1932 75.7474 39.472 76.2801 40.7858C76.2919 40.8802 76.2919 40.9757 76.2801 41.0701Z" fill="#AED329"/>
<path d="M0.893594 108.447C3.41831 108.447 5.94302 108.455 8.46656 108.437C8.84358 108.437 8.96497 108.531 8.94396 108.925C8.91011 109.562 8.92178 110.203 8.94396 110.845C8.95213 111.134 8.86809 111.224 8.58679 111.212C8.04403 111.19 7.49777 111.232 6.95267 111.197C6.56982 111.172 6.47527 111.297 6.47761 111.687C6.49512 114.263 6.47761 116.838 6.49745 119.413C6.49745 119.86 6.39941 119.991 5.96053 119.965C5.24314 119.927 4.52438 119.927 3.80699 119.965C3.42297 119.983 3.32843 119.864 3.33076 119.475C3.34827 116.899 3.33076 114.324 3.35177 111.748C3.35177 111.301 3.25256 111.167 2.81368 111.197C2.17638 111.241 1.52973 111.208 0.892426 111.208L0.893594 108.447Z" fill="black"/>
<path d="M9.42368 108.447C10.4228 108.447 11.3543 108.464 12.2857 108.438C12.6674 108.427 12.8401 108.521 12.9755 108.93C13.6957 111.089 14.5186 113.21 15.1664 115.395C15.2156 115.599 15.2546 115.805 15.2832 116.013C15.9835 113.558 16.8928 111.245 17.669 108.886C17.7787 108.551 17.9024 108.427 18.2526 108.437C19.2167 108.464 20.1808 108.447 21.2045 108.447C20.6209 109.886 20.0501 111.259 19.4863 112.635C18.7276 114.492 17.9693 116.349 17.2114 118.207C17.0095 118.702 16.8111 119.2 16.6278 119.703C16.5519 119.912 16.4177 119.952 16.2286 119.951C15.6076 119.951 14.9855 119.927 14.3669 119.96C14.1031 119.974 14.0167 119.807 13.9572 119.645C12.6522 116.446 11.3531 113.241 10.0598 110.03L9.42368 108.447Z" fill="black"/>
<path d="M67.6741 114.199C67.6741 112.441 67.6869 110.684 67.6659 108.928C67.6659 108.539 67.757 108.421 68.141 108.437C68.916 108.469 69.6946 108.458 70.4754 108.437C70.7556 108.43 70.8326 108.516 70.8256 108.804C70.8163 112.397 70.8163 115.99 70.8256 119.584C70.8256 119.871 70.7521 119.96 70.4754 119.952C69.6794 119.933 68.8822 119.93 68.0873 119.952C67.757 119.963 67.6671 119.862 67.6706 119.524C67.6834 117.752 67.6741 115.976 67.6741 114.199Z" fill="black"/>
<path d="M71.5936 104.492C70.9388 105.247 70.277 105.854 69.8089 106.592C69.2989 107.396 68.6417 107.266 67.8772 107.22C68.3289 106.325 68.7654 105.482 69.1775 104.627C69.2522 104.473 69.3479 104.495 69.4529 104.495C70.1217 104.491 70.7917 104.492 71.5936 104.492Z" fill="black"/>
<path d="M66.5419 119.417C65.9957 117.885 65.5113 116.332 64.9883 114.79C64.3009 112.759 63.5877 110.737 62.9177 108.7C62.8395 108.46 62.7554 108.444 62.5675 108.445C61.4602 108.445 60.3533 108.445 59.2468 108.445C59.0133 108.445 58.8884 108.501 58.7997 108.776C58.1998 110.635 57.5683 112.483 56.9438 114.333C56.3695 116.034 55.7894 117.734 55.193 119.483C54.7319 118.813 54.3012 118.202 53.8869 117.582C53.4725 116.962 53.0581 116.292 52.6309 115.663C52.4547 115.399 52.4302 115.257 52.792 115.154C53.196 115.054 53.5675 114.847 53.8693 114.554C54.7681 113.635 54.9385 112.539 54.7448 111.287C54.4401 109.327 53.134 108.58 51.71 108.483C50.0864 108.371 48.4487 108.462 46.8181 108.45C46.5485 108.45 46.4528 108.51 46.4528 108.81C46.4637 112.404 46.4637 115.998 46.4528 119.591C46.4528 119.951 46.5963 119.969 46.8625 119.965C47.5418 119.953 48.2235 119.939 48.9016 119.965C49.2705 119.98 49.3954 119.888 49.386 119.485C49.358 118.225 49.3755 116.965 49.3755 115.567C50.1926 117.024 50.9629 118.343 51.6831 119.685C51.836 119.969 52.017 119.957 52.2446 119.957C54.0316 119.957 55.8174 119.942 57.6045 119.968C58.0842 119.975 58.3433 119.896 58.3737 119.329C58.3912 118.977 58.6281 118.642 58.683 118.286C58.7343 117.956 58.8989 117.918 59.158 117.919C60.3253 117.919 61.4925 117.937 62.6527 117.909C62.962 117.902 63.0578 118.058 63.1196 118.291C63.2445 118.735 63.4079 119.178 63.4546 119.631C63.4873 119.954 63.6087 119.965 63.8468 119.962C64.6242 119.951 65.4015 119.943 66.1813 119.962C66.6131 119.967 66.7042 119.873 66.5419 119.417ZM51.7076 112.668C51.6434 113.168 51.0633 113.671 50.4984 113.714C49.3767 113.801 49.3767 113.801 49.3767 112.653V112.234C49.3767 111.934 49.414 111.634 49.3685 111.338C49.2856 110.81 49.602 110.729 49.93 110.858C50.2579 110.986 50.5789 110.882 50.8859 111.003C51.5115 111.262 51.8127 111.854 51.7076 112.668ZM59.5211 115.497C59.9121 113.883 60.519 112.357 60.868 110.602L62.2827 115.497H59.5211Z" fill="black"/>
<path d="M81.9844 115.993C81.7929 114.781 81.1124 113.913 79.7316 113.682C81.2338 113.187 81.5922 112.229 81.5186 111.192C81.3832 109.297 80.2732 108.612 78.6356 108.478C76.9396 108.338 75.2238 108.451 73.5161 108.442C73.2582 108.442 73.1449 108.482 73.1449 108.792C73.1566 112.402 73.1566 116.012 73.1449 119.621C73.1449 119.885 73.2196 119.957 73.4729 119.955C75.2681 119.94 77.0668 120.01 78.855 119.817C79.574 119.739 80.3082 119.577 80.9012 119.097C81.891 118.306 82.1734 117.186 81.9844 115.993ZM76.0595 112.634C76.0772 112.377 76.0792 112.119 76.0653 111.862V111.564C76.0653 110.672 76.0653 110.665 76.9303 110.731C77.2507 110.738 77.5688 110.788 77.8769 110.879C78.3951 111.064 78.5667 111.496 78.5142 112.042C78.4582 112.622 78.0275 112.789 77.5804 112.871C77.2116 112.939 76.8264 112.862 76.4517 112.991C76.2007 113.078 76.0233 112.979 76.0595 112.631V112.634ZM78.9776 116.387C78.9519 116.976 78.5399 117.356 77.8255 117.433C77.6311 117.444 77.4363 117.444 77.2419 117.433C76.0607 117.433 76.0607 117.433 76.0607 116.193V116.073C76.0607 115.001 76.0607 115.003 77.0913 115.036C77.4532 115.047 77.8033 115.149 78.164 115.182C78.6904 115.23 79.0056 115.773 78.9799 116.387H78.9776Z" fill="black"/>
<path d="M45.2972 119.192C44.1393 115.748 42.9686 112.308 41.834 108.853C41.7173 108.503 41.5749 108.44 41.2749 108.443C40.2244 108.452 39.1798 108.461 38.1328 108.443C37.7954 108.436 37.6927 108.588 37.5982 108.882C37.0846 110.467 36.5477 112.042 36.0213 113.621C35.3723 115.562 34.7373 117.505 34.0685 119.44C33.9366 119.823 33.9518 119.987 34.3965 119.96C34.7641 119.936 35.1342 119.96 35.5018 119.952C36.0037 119.944 36.599 120.093 36.9807 119.866C37.3846 119.626 37.3239 118.931 37.4733 118.441C37.59 118.048 37.7277 117.865 38.1584 117.906C38.6592 117.954 39.1669 117.918 39.6758 117.918H40.4229C41.8492 117.918 41.8504 117.918 42.2332 119.284C42.2487 119.361 42.2589 119.439 42.2636 119.517C42.3068 119.829 42.4468 119.978 42.7877 119.963C43.446 119.934 44.1066 119.955 44.7719 119.955C45.5458 119.95 45.5517 119.948 45.2972 119.192ZM40.773 115.518C39.9793 115.511 39.1856 115.518 38.3487 115.518C38.8156 113.918 39.2731 112.338 39.7377 110.738C40.1801 112.235 40.6014 113.7 41.052 115.154C41.157 115.486 41.045 115.522 40.773 115.518Z" fill="black"/>
<path d="M93.82 119.426C93.4617 118.459 93.171 117.464 92.8454 116.484C91.9933 113.923 91.133 111.365 90.2856 108.806C90.1888 108.512 90.0288 108.438 89.7417 108.446C88.7519 108.464 87.7574 108.488 86.7723 108.438C86.3159 108.415 86.1163 108.625 85.9937 108.995C84.7857 112.624 83.5823 116.256 82.3543 119.957C82.8539 119.957 83.2998 119.957 83.7445 119.957C84.3281 119.949 85.0285 120.132 85.4428 119.856C85.793 119.617 85.8268 118.857 85.9669 118.319C86.0521 117.991 86.2179 117.903 86.5342 117.914C87.2719 117.939 88.0095 117.923 88.7519 117.923C90.372 117.923 90.386 117.923 90.7362 119.557C90.8109 119.904 90.9451 119.966 91.2323 119.962C91.9699 119.952 92.7076 119.944 93.45 119.962C93.8597 119.968 93.9986 119.892 93.82 119.426ZM86.791 115.499C87.2497 113.933 87.7026 112.389 88.1858 110.739C88.6749 112.396 89.1277 113.935 89.5865 115.499H86.791Z" fill="black"/>
<path d="M34.561 111.798C34.4151 109.781 33.2689 108.581 31.3313 108.466C29.7637 108.372 28.1868 108.466 26.6145 108.436C26.2387 108.436 26.1722 108.556 26.1757 108.905C26.1943 110.661 26.1838 112.419 26.1838 114.175C26.1838 115.952 26.1967 117.728 26.1745 119.505C26.1745 119.887 26.2761 119.973 26.6274 119.959C27.3277 119.929 28.0281 119.932 28.7284 119.959C29.0459 119.971 29.1136 119.857 29.1089 119.554C29.0914 118.556 29.1218 117.558 29.0926 116.555C29.0809 116.171 29.1965 116.085 29.5466 116.103C30.1302 116.134 30.7138 116.13 31.2975 116.103C32.8254 116.043 34.1537 115.227 34.4875 113.494C34.587 112.935 34.6117 112.364 34.561 111.798ZM31.4305 112.828C31.2683 113.33 30.8142 113.369 30.4384 113.46C30.0882 113.544 29.7077 113.468 29.3424 113.483C29.1206 113.491 29.0914 113.377 29.0949 113.192C29.1042 112.855 29.0949 112.517 29.0949 112.18V112.001C29.0949 110.906 29.0949 110.902 30.1723 110.963C31.4702 111.037 31.7352 111.89 31.4352 112.828H31.4305Z" fill="black"/>
</g>
<defs>
<clipPath id="clip0_2509_12800">
<rect width="93" height="120" fill="white" transform="translate(0.893555)"/>
</clipPath>
</defs>
</svg>
