<svg width="333" height="120" viewBox="0 0 333 120" fill="none" xmlns="http://www.w3.org/2000/svg">
<path fill-rule="evenodd" clip-rule="evenodd" d="M209.855 54.0184L203.79 55.6909C199.565 57.3606 195.783 60.2443 192.595 64.6308V56.5937L177.622 56.4522V119.558H193.203V89.3705C193.203 84.2058 193.814 80.5721 195.181 78.2883C196.23 75.8715 198.194 73.8962 200.622 72.2293C203.344 70.4011 206.215 69.4899 209.25 69.4899L214.081 69.804L213.936 53.7099L209.855 54.0184ZM87.9145 119.552H103.648V37.3358H87.9145V119.552ZM150.544 87.4006L147.522 89.0533L139.654 91.0286C136.322 91.4843 133.759 92.2427 132.241 93.1511C129.678 94.8208 128.457 97.1074 128.457 100.288C128.457 103.169 129.223 105.133 130.729 106.509C132.241 107.709 134.058 108.32 136.322 108.32C139.957 108.32 143.133 107.256 146.163 105.133C149.029 103.011 150.544 99.2158 150.544 93.7652V87.4006ZM167.046 73.13V119.556H151.301V113.027C146.454 117.275 139.654 119.4 131.037 119.556C125.732 119.4 121.349 117.892 118.169 115.155C114.549 111.819 112.734 107.257 112.881 101.662C112.734 93.6077 115.603 88.0015 121.498 84.5122C124.986 82.5312 129.517 81.1756 135.11 80.4087L147.217 78.4475C149.634 77.3891 150.846 75.7053 150.846 73.5913C150.694 71.0132 149.936 69.1878 148.124 68.2794C146.313 67.2125 143.744 66.5984 140.417 66.7597C136.475 66.5984 133.759 67.671 132.094 69.8048C131.037 71.0132 130.121 72.8385 129.83 75.5666H114.088C114.549 69.8048 115.911 65.24 118.627 61.7563C122.864 56.1445 130.277 53.2551 140.87 53.4135C147.675 53.2551 153.72 54.6304 159.167 57.5113C164.305 60.2423 167.046 65.5457 167.046 73.13ZM41.0188 52.963C45.8658 52.963 50.2464 54.3213 54.4858 57.0579C58.2701 59.6389 61.2942 63.2754 63.4139 67.5204H79.8993C77.4801 58.7276 72.7885 51.4404 65.6749 45.8399C58.4256 40.0667 50.1023 37.1858 41.0188 37.3358C29.6799 37.1858 20.2911 41.128 12.4285 49.3151C4.41333 57.3579 0.484863 66.9091 0.484863 78.2884C0.484863 89.5093 4.41333 99.3831 12.4285 107.415C20.2911 115.296 29.6799 119.25 41.0188 119.25C50.1023 119.25 58.4256 116.513 65.6749 110.898C72.7885 105.134 77.4801 98.0106 79.8993 89.2122H63.4139C61.2942 93.4628 58.2701 96.938 54.4858 99.6746C50.2464 102.264 45.8658 103.625 41.0188 103.625C34.0634 103.625 28.1679 101.044 23.318 96.1796C18.3382 91.179 15.9133 85.2785 16.0603 78.2884C15.9133 71.3182 18.3382 65.3951 23.318 60.3973C28.1679 55.5411 34.0634 52.963 41.0188 52.963ZM265.521 86.784C265.362 81.7834 263.701 77.6799 260.515 74.3462C257.042 70.8653 252.964 69.1871 248.12 69.3428C243.431 69.1871 239.347 70.8653 236.023 74.3462C232.688 77.6799 230.871 81.7834 230.871 86.784C230.871 91.4846 232.688 95.5824 236.023 99.0745C239.347 102.572 243.431 104.222 248.12 104.222C252.964 104.222 257.042 102.572 260.371 99.0745C263.701 95.5824 265.362 91.4846 265.521 86.784ZM271.414 63.2759C277.77 69.8046 280.949 77.6805 280.949 86.7845C280.949 95.8857 277.77 103.77 271.414 110.143C264.91 116.672 257.042 120 248.12 120C239.197 120 231.473 116.672 225.126 110.143C218.614 103.77 215.446 95.8857 215.446 86.7845C215.446 77.6805 218.614 69.8046 225.126 63.2759C231.473 56.7584 239.197 53.5606 248.12 53.5606C257.042 53.5606 264.91 56.7584 271.414 63.2759ZM290.64 85.8729H332.248V71.7683H290.64V85.8729ZM242.981 40.8196H257.05V0H242.981V40.8196ZM321.662 17.9108L283.674 55.9881L273.695 45.9728L311.668 7.90678L321.662 17.9108Z" fill="#DA291C"/>
</svg>
