<svg width="1155" height="120" viewBox="0 0 1155 120" fill="none" xmlns="http://www.w3.org/2000/svg">
<path d="M0.00878906 2.05693H46.3634C55.5393 2.05693 62.3686 2.45245 66.8511 3.24348C71.3864 3.98178 75.4206 5.56384 78.9539 7.98968C82.54 10.4155 85.5195 13.6588 87.8926 17.7194C90.2657 21.7273 91.4523 26.2362 91.4523 31.2461C91.4523 36.6778 89.9757 41.6613 87.0225 46.1966C84.122 50.7319 80.1669 54.1333 75.157 56.4009C82.2235 58.4576 87.6553 61.9645 91.4523 66.9217C95.2492 71.8788 97.1477 77.7061 97.1477 84.4035C97.1477 89.6771 95.9084 94.8188 93.4298 99.8287C91.004 104.786 87.6553 108.767 83.3837 111.773C79.1649 114.726 73.9441 116.546 67.7213 117.231C63.8188 117.653 54.4055 117.917 39.4814 118.022H0.00878906V2.05693ZM23.4234 21.3581V48.1742H38.7694C47.8927 48.1742 53.5618 48.0423 55.7766 47.7787C59.7846 47.304 62.9223 45.9329 65.1899 43.6653C67.5103 41.3449 68.6705 38.3126 68.6705 34.5684C68.6705 30.9824 67.6685 28.0819 65.6646 25.867C63.7134 23.5994 60.7865 22.2283 56.8841 21.7537C54.5637 21.49 47.8927 21.3581 36.8709 21.3581H23.4234ZM23.4234 67.4754V98.4839H45.0977C53.5354 98.4839 58.8881 98.2466 61.1557 97.772C64.6362 97.1392 67.4576 95.6098 69.6197 93.184C71.8346 90.7054 72.9421 87.4094 72.9421 83.2961C72.9421 79.8155 72.0983 76.8623 70.4108 74.4365C68.7232 72.0107 66.271 70.244 63.0542 69.1366C59.89 68.0291 52.9817 67.4754 42.3291 67.4754H23.4234Z" fill="#13568A"/>
<path d="M97.6761 60.7516C97.6761 48.9388 99.4428 39.0246 102.976 31.0088C105.613 25.1024 109.199 19.8024 113.734 15.109C118.322 10.4155 123.332 6.93497 128.764 4.66734C135.989 1.60868 144.321 0.0793457 153.76 0.0793457C170.847 0.0793457 184.505 5.37927 194.736 15.9791C205.019 26.579 210.161 41.3186 210.161 60.1979C210.161 78.919 205.072 93.5795 194.894 104.179C184.716 114.726 171.11 120 154.077 120C136.832 120 123.121 114.753 112.943 104.258C102.765 93.7113 97.6761 79.2091 97.6761 60.7516ZM121.803 59.9606C121.803 73.0917 124.835 83.0588 130.9 89.8616C136.964 96.6118 144.663 99.9869 153.998 99.9869C163.332 99.9869 170.979 96.6382 176.938 89.9407C182.95 83.1906 185.955 73.0917 185.955 59.6442C185.955 46.3548 183.029 36.4405 177.175 29.9013C171.374 23.3621 163.648 20.0925 153.998 20.0925C144.347 20.0925 136.569 23.4148 130.662 30.0595C124.756 36.6515 121.803 46.6185 121.803 59.9606Z" fill="#13568A"/>
<path d="M318.507 118.022H293.036L282.911 91.681H236.556L226.985 118.022H202.146L247.314 2.05693H272.074L318.507 118.022ZM275.396 72.1425L259.417 29.1103L243.755 72.1425H275.396Z" fill="#13568A"/>
<path d="M999.835 118.021V21.6733H965.425V2.05566H1057.58V21.6733H1023.25V118.021H999.835Z" fill="#D1B182"/>
<path d="M1087.77 118.021L1046.32 2.05566H1071.71L1101.06 87.8828L1129.46 2.05566H1154.3L1112.77 118.021H1087.77Z" fill="#D1B182"/>
<path d="M329.864 118.022L284.933 2.05669H301.545L331.683 86.3018C334.109 93.0519 336.139 99.3802 337.774 105.287C339.567 98.9583 341.65 92.63 344.023 86.3018L375.348 2.05669H391.011L345.605 118.022H329.864Z" fill="#13568A"/>
<path d="M385.527 61.5424C385.527 42.2939 390.695 27.2379 401.032 16.3744C411.368 5.45813 424.71 0 441.058 0C451.763 0 461.414 2.55767 470.01 7.67302C478.606 12.7884 485.145 19.934 489.627 29.11C494.163 38.2333 496.43 48.5958 496.43 60.1976C496.43 71.9577 494.057 82.4784 489.311 91.7599C484.565 101.041 477.841 108.082 469.139 112.88C460.438 117.627 451.051 120 440.979 120C430.062 120 420.306 117.363 411.71 112.089C403.115 106.816 396.602 99.6175 392.172 90.4942C387.742 81.371 385.527 71.7204 385.527 61.5424ZM401.348 61.7797C401.348 75.7546 405.092 86.7764 412.581 94.8449C420.122 102.861 429.561 106.869 440.9 106.869C452.449 106.869 461.941 102.808 469.377 94.6867C476.865 86.5654 480.609 75.0427 480.609 60.1185C480.609 50.6789 479.001 42.4521 475.784 35.4383C472.62 28.3717 467.953 22.9136 461.783 19.0639C455.666 15.1615 448.784 13.2103 441.137 13.2103C430.273 13.2103 420.913 16.9545 413.055 24.4429C405.25 31.8786 401.348 44.3242 401.348 61.7797Z" fill="#13568A"/>
<path d="M501.547 118.022V2.05669H517.288L578.198 93.1046V2.05669H592.911V118.022H577.169L516.26 26.8951V118.022H501.547Z" fill="#13568A"/>
<path d="M633.703 118.022V15.7416H595.496V2.05669H687.414V15.7416H649.049V118.022H633.703Z" fill="#13568A"/>
<path d="M663.895 118.022L708.43 2.05669H724.963L772.425 118.022H754.943L741.416 82.9003H692.926L680.19 118.022H663.895ZM697.356 70.402H736.67L724.567 38.286C720.876 28.5299 718.134 20.5141 716.341 14.2386C714.864 21.6743 712.781 29.0573 710.091 36.3875L697.356 70.402Z" fill="#13568A"/>
<path d="M770.106 118.022V2.05669H810.053C819.07 2.05669 825.953 2.61041 830.699 3.71786C837.343 5.24719 843.012 8.01581 847.706 12.0237C853.823 17.1918 858.385 23.8101 861.391 31.8786C864.449 39.8945 865.979 49.0704 865.979 59.4066C865.979 68.2134 864.95 76.0183 862.894 82.8212C860.837 89.6241 858.2 95.2668 854.983 99.7493C851.767 104.179 848.233 107.686 844.384 110.27C840.587 112.801 835.972 114.726 830.541 116.045C825.161 117.363 818.965 118.022 811.951 118.022H770.106ZM785.452 104.337H810.211C817.858 104.337 823.843 103.625 828.167 102.202C832.544 100.778 836.025 98.7737 838.609 96.1897C842.248 92.5509 845.069 87.6729 847.073 81.5555C849.13 75.3855 850.158 67.9234 850.158 59.1693C850.158 47.0401 848.154 37.7323 844.146 31.2458C840.191 24.7066 835.366 20.3296 829.67 18.1147C825.557 16.5326 818.939 15.7416 809.815 15.7416H785.452V104.337Z" fill="#13568A"/>
<path d="M872.915 118.022V2.05669H956.764V15.7416H888.261V51.259H952.414V64.8647H888.261V104.337H959.454V118.022H872.915Z" fill="#13568A"/>
</svg>
